<svg width="48" height="48" viewBox="0 0 48 48" fill="none" xmlns="http://www.w3.org/2000/svg">
<g id="Frame">
<path id="Vector" d="M43.2978 39.7502C40.4421 34.8133 36.0415 31.2733 30.9059 29.5952C33.4462 28.083 35.4199 25.7786 36.5238 23.0361C37.6277 20.2936 37.8008 17.2645 37.0166 14.414C36.2324 11.5636 34.5342 9.04933 32.1827 7.25745C29.8313 5.46557 26.9566 4.49512 24.0003 4.49512C21.0439 4.49512 18.1693 5.46557 15.8178 7.25745C13.4664 9.04933 11.7681 11.5636 10.9839 14.414C10.1997 17.2645 10.3728 20.2936 11.4767 23.0361C12.5807 25.7786 14.5543 28.083 17.0946 29.5952C11.959 31.2715 7.55839 34.8115 4.70276 39.7502C4.59804 39.921 4.52858 40.111 4.49848 40.309C4.46838 40.507 4.47824 40.7091 4.5275 40.9032C4.57675 41.0974 4.66439 41.2797 4.78525 41.4395C4.90611 41.5992 5.05773 41.7331 5.23119 41.8333C5.40464 41.9335 5.5964 41.9979 5.79515 42.0228C5.99391 42.0477 6.19564 42.0325 6.38843 41.9782C6.58122 41.9238 6.76118 41.8314 6.91768 41.7064C7.07418 41.5813 7.20405 41.4262 7.29964 41.2502C10.8321 35.1452 17.0759 31.5002 24.0003 31.5002C30.9246 31.5002 37.1684 35.1452 40.7009 41.2502C40.7965 41.4262 40.9263 41.5813 41.0828 41.7064C41.2393 41.8314 41.4193 41.9238 41.6121 41.9782C41.8049 42.0325 42.0066 42.0477 42.2054 42.0228C42.4041 41.9979 42.5959 41.9335 42.7693 41.8333C42.9428 41.7331 43.0944 41.5992 43.2153 41.4395C43.3361 41.2797 43.4238 41.0974 43.473 40.9032C43.5223 40.7091 43.5321 40.507 43.502 40.309C43.4719 40.111 43.4025 39.921 43.2978 39.7502ZM13.5003 18.0002C13.5003 15.9235 14.1161 13.8934 15.2698 12.1667C16.4236 10.44 18.0635 9.0942 19.9821 8.29948C21.9007 7.50476 24.0119 7.29683 26.0487 7.70197C28.0855 8.10712 29.9564 9.10714 31.4249 10.5756C32.8933 12.044 33.8934 13.915 34.2985 15.9518C34.7037 17.9886 34.4957 20.0998 33.701 22.0184C32.9063 23.937 31.5605 25.5769 29.8338 26.7306C28.107 27.8844 26.077 28.5002 24.0003 28.5002C21.2164 28.4972 18.5474 27.39 16.5789 25.4216C14.6104 23.4531 13.5032 20.7841 13.5003 18.0002Z" fill="#DD461A"/>
</g>
</svg>
