<svg width="80" height="80" viewBox="0 0 80 80" fill="none" xmlns="http://www.w3.org/2000/svg">
<g id="Frame">
<path id="Vector" d="M75 66.2497H68.75V29.9997C68.75 29.0051 68.3549 28.0513 67.6516 27.3481C66.9484 26.6448 65.9946 26.2497 65 26.2497H43.75V9.99971C43.751 9.32037 43.5675 8.65352 43.219 8.07039C42.8705 7.48725 42.3701 7.00974 41.7713 6.68886C41.1726 6.36797 40.4979 6.21576 39.8193 6.2485C39.1408 6.28123 38.4839 6.49767 37.9187 6.87471L12.9187 23.5403C12.4046 23.8834 11.9832 24.3481 11.6921 24.8933C11.401 25.4386 11.2491 26.0473 11.25 26.6653V66.2497H5C4.66848 66.2497 4.35054 66.3814 4.11612 66.6158C3.8817 66.8502 3.75 67.1682 3.75 67.4997C3.75 67.8312 3.8817 68.1492 4.11612 68.3836C4.35054 68.618 4.66848 68.7497 5 68.7497H75C75.3315 68.7497 75.6495 68.618 75.8839 68.3836C76.1183 68.1492 76.25 67.8312 76.25 67.4997C76.25 67.1682 76.1183 66.8502 75.8839 66.6158C75.6495 66.3814 75.3315 66.2497 75 66.2497ZM65 28.7497C65.3315 28.7497 65.6495 28.8814 65.8839 29.1158C66.1183 29.3502 66.25 29.6682 66.25 29.9997V66.2497H43.75V28.7497H65ZM13.75 26.6685C13.7494 26.4621 13.7998 26.2588 13.8969 26.0766C13.9939 25.8945 14.1346 25.7392 14.3062 25.6247L39.3063 8.95908C39.4945 8.83345 39.7134 8.76131 39.9395 8.75036C40.1656 8.7394 40.3904 8.79005 40.59 8.89689C40.7895 9.00372 40.9563 9.16274 41.0726 9.35697C41.1888 9.5512 41.2501 9.77335 41.25 9.99971V66.2497H13.75V26.6685ZM33.75 34.9997V39.9997C33.75 40.3312 33.6183 40.6492 33.3839 40.8836C33.1495 41.118 32.8315 41.2497 32.5 41.2497C32.1685 41.2497 31.8505 41.118 31.6161 40.8836C31.3817 40.6492 31.25 40.3312 31.25 39.9997V34.9997C31.25 34.6682 31.3817 34.3502 31.6161 34.1158C31.8505 33.8814 32.1685 33.7497 32.5 33.7497C32.8315 33.7497 33.1495 33.8814 33.3839 34.1158C33.6183 34.3502 33.75 34.6682 33.75 34.9997ZM23.75 34.9997V39.9997C23.75 40.3312 23.6183 40.6492 23.3839 40.8836C23.1495 41.118 22.8315 41.2497 22.5 41.2497C22.1685 41.2497 21.8505 41.118 21.6161 40.8836C21.3817 40.6492 21.25 40.3312 21.25 39.9997V34.9997C21.25 34.6682 21.3817 34.3502 21.6161 34.1158C21.8505 33.8814 22.1685 33.7497 22.5 33.7497C22.8315 33.7497 23.1495 33.8814 23.3839 34.1158C23.6183 34.3502 23.75 34.6682 23.75 34.9997ZM23.75 52.4997V57.4997C23.75 57.8312 23.6183 58.1492 23.3839 58.3836C23.1495 58.618 22.8315 58.7497 22.5 58.7497C22.1685 58.7497 21.8505 58.618 21.6161 58.3836C21.3817 58.1492 21.25 57.8312 21.25 57.4997V52.4997C21.25 52.1682 21.3817 51.8502 21.6161 51.6158C21.8505 51.3814 22.1685 51.2497 22.5 51.2497C22.8315 51.2497 23.1495 51.3814 23.3839 51.6158C23.6183 51.8502 23.75 52.1682 23.75 52.4997ZM33.75 52.4997V57.4997C33.75 57.8312 33.6183 58.1492 33.3839 58.3836C33.1495 58.618 32.8315 58.7497 32.5 58.7497C32.1685 58.7497 31.8505 58.618 31.6161 58.3836C31.3817 58.1492 31.25 57.8312 31.25 57.4997V52.4997C31.25 52.1682 31.3817 51.8502 31.6161 51.6158C31.8505 51.3814 32.1685 51.2497 32.5 51.2497C32.8315 51.2497 33.1495 51.3814 33.3839 51.6158C33.6183 51.8502 33.75 52.1682 33.75 52.4997Z" fill="#005450"/>
</g>
</svg>
