<svg width="80" height="80" viewBox="0 0 80 80" fill="none" xmlns="http://www.w3.org/2000/svg">
<g id="Frame">
<path id="Vector" d="M56.4595 35.3434L66.1626 26.209L66.1907 26.184C67.8318 24.543 68.7537 22.3173 68.7537 19.9965C68.7537 17.6758 67.8318 15.4501 66.1907 13.809C64.5497 12.168 62.324 11.2461 60.0032 11.2461C57.6825 11.2461 55.4568 12.168 53.8157 13.809L53.7907 13.8372L44.6563 23.5403L17.9282 13.8215C17.7045 13.7399 17.4621 13.7239 17.2296 13.7754C16.9971 13.8269 16.7841 13.9437 16.6157 14.1122L9.11573 21.6122C8.98477 21.743 8.88448 21.9012 8.82212 22.0754C8.75976 22.2497 8.73687 22.4356 8.75511 22.6198C8.77335 22.804 8.83226 22.9818 8.92759 23.1405C9.02292 23.2991 9.15228 23.4346 9.30635 23.5372L30.5564 37.6903L24.4845 43.7497H17.5001C17.3357 43.7499 17.1729 43.7827 17.0212 43.8459C16.8694 43.9092 16.7316 44.0018 16.6157 44.1184L9.11573 51.6184C8.9696 51.7646 8.86202 51.9448 8.80261 52.1428C8.7432 52.3408 8.73382 52.5504 8.77531 52.7529C8.81681 52.9554 8.90787 53.1445 9.04036 53.3032C9.17285 53.4619 9.34262 53.5852 9.53448 53.6622L21.5407 58.4622L26.3345 70.4528V70.4809C26.4141 70.6731 26.5404 70.8424 26.7021 70.9735C26.8637 71.1045 27.0554 71.1931 27.26 71.2313C27.4645 71.2695 27.6753 71.256 27.8733 71.1921C28.0713 71.1282 28.2502 71.0159 28.3939 70.8653L35.872 63.3872C35.9907 63.2717 36.0852 63.1337 36.1501 62.9814C36.215 62.829 36.249 62.6653 36.2501 62.4997V55.5153L42.3064 49.459L56.4595 70.6934C56.562 70.8475 56.6975 70.9769 56.8562 71.0722C57.0148 71.1675 57.1926 71.2264 57.3768 71.2447C57.561 71.2629 57.7469 71.24 57.9212 71.1776C58.0955 71.1153 58.2537 71.015 58.3845 70.884L65.8845 63.384C66.0529 63.2157 66.1698 63.0027 66.2212 62.7702C66.2727 62.5377 66.2567 62.2953 66.1751 62.0715L56.4595 35.3434ZM57.7095 68.0372L43.5564 46.8059C43.4529 46.6492 43.3154 46.5178 43.1542 46.4215C42.993 46.3252 42.8121 46.2665 42.6251 46.2497H42.5032C42.3388 46.2499 42.1761 46.2827 42.0243 46.3459C41.8725 46.4092 41.7348 46.5018 41.6189 46.6184L34.1189 54.1184C33.8841 54.3518 33.7515 54.6687 33.7501 54.9997V61.9809L27.9595 67.7747L23.6626 57.034C23.5997 56.8767 23.5055 56.7338 23.3857 56.614C23.2659 56.4942 23.123 56.4 22.9657 56.3372L12.2251 52.0403L18.0189 46.2497H25.0001C25.1643 46.2498 25.3269 46.2176 25.4787 46.1548C25.6304 46.0921 25.7683 46.0001 25.8845 45.884L33.3845 38.384C33.5154 38.2533 33.6157 38.095 33.6781 37.9208C33.7404 37.7465 33.7633 37.5606 33.7451 37.3764C33.7269 37.1922 33.6679 37.0144 33.5726 36.8557C33.4773 36.6971 33.3479 36.5616 33.1939 36.459L11.9626 22.3028L17.8126 16.4434L44.5657 26.1715C44.7948 26.2557 45.0436 26.271 45.2812 26.2155C45.5189 26.1599 45.7351 26.036 45.9032 25.859L55.5907 15.5684C56.7622 14.3952 58.3518 13.7355 60.0097 13.7343C61.6677 13.7332 63.2582 14.3907 64.4314 15.5622C65.6045 16.7337 66.2643 18.3232 66.2654 19.9812C66.2666 21.6391 65.6091 23.2296 64.4376 24.4028L54.147 34.0903C53.97 34.2584 53.8461 34.4746 53.7906 34.7123C53.735 34.95 53.7503 35.1987 53.8345 35.4278L63.5564 62.1872L57.7095 68.0372Z" fill="#005450"/>
</g>
</svg>
