<svg width="80" height="80" viewBox="0 0 80 80" fill="none" xmlns="http://www.w3.org/2000/svg">
<g id="Frame">
<path id="Vector" d="M76.1188 66.9406L58.6188 31.9406C58.5151 31.7326 58.3555 31.5576 58.1578 31.4353C57.9602 31.313 57.7324 31.2482 57.5 31.2482C57.2676 31.2482 57.0398 31.313 56.8422 31.4353C56.6445 31.5576 56.4849 31.7326 56.3812 31.9406L49.2344 46.25C42.8951 46.0723 36.7923 43.8048 31.875 39.8C37.5655 34.2351 40.9099 26.7031 41.2219 18.75H50C50.3315 18.75 50.6495 18.6183 50.8839 18.3839C51.1183 18.1495 51.25 17.8315 51.25 17.5C51.25 17.1685 51.1183 16.8505 50.8839 16.6161C50.6495 16.3817 50.3315 16.25 50 16.25H31.25V10C31.25 9.66848 31.1183 9.35054 30.8839 9.11612C30.6495 8.8817 30.3315 8.75 30 8.75C29.6685 8.75 29.3505 8.8817 29.1161 9.11612C28.8817 9.35054 28.75 9.66848 28.75 10V16.25H10C9.66848 16.25 9.35054 16.3817 9.11612 16.6161C8.8817 16.8505 8.75 17.1685 8.75 17.5C8.75 17.8315 8.8817 18.1495 9.11612 18.3839C9.35054 18.6183 9.66848 18.75 10 18.75H38.7219C38.4056 26.0921 35.2836 33.0328 30 38.1406C26.8059 35.0543 24.3704 31.27 22.8844 27.0844C22.8339 26.9244 22.7519 26.7763 22.643 26.6487C22.5341 26.5212 22.4007 26.4168 22.2506 26.3419C22.1006 26.267 21.937 26.223 21.7696 26.2126C21.6023 26.2023 21.4345 26.2257 21.2764 26.2814C21.1182 26.3372 20.9729 26.4243 20.8491 26.5374C20.7253 26.6505 20.6255 26.7874 20.5557 26.9399C20.4859 27.0923 20.4475 27.2573 20.4427 27.4249C20.438 27.5926 20.467 27.7594 20.5281 27.9156C22.1179 32.4026 24.7158 36.4651 28.1219 39.7906C23.0075 43.9702 16.605 46.2523 10 46.25C9.66848 46.25 9.35054 46.3817 9.11612 46.6161C8.8817 46.8505 8.75 47.1685 8.75 47.5C8.75 47.8315 8.8817 48.1495 9.11612 48.3839C9.35054 48.6183 9.66848 48.75 10 48.75C17.3119 48.7581 24.393 46.1901 30 41.4969C35.0927 45.7418 41.4025 48.2588 48.0188 48.6844L38.8875 66.9437C38.814 67.0907 38.7702 67.2506 38.7586 67.4145C38.747 67.5783 38.7677 67.7428 38.8196 67.8987C38.9245 68.2134 39.1502 68.4735 39.4469 68.6219C39.7436 68.7702 40.0871 68.7946 40.4018 68.6897C40.7165 68.5848 40.9766 68.3592 41.125 68.0625L45.7719 58.75H69.2281L73.8812 68.0594C73.9852 68.267 74.1449 68.4417 74.3425 68.5637C74.5401 68.6856 74.7678 68.7502 75 68.75C75.194 68.7489 75.3852 68.7041 75.5594 68.6188C75.7064 68.5454 75.8374 68.4437 75.9451 68.3197C76.0528 68.1956 76.135 68.0515 76.1869 67.8956C76.2389 67.7398 76.2596 67.5752 76.2479 67.4113C76.2362 67.2475 76.1923 67.0875 76.1188 66.9406ZM47.0219 56.25L57.5 35.2938L67.9781 56.25H47.0219Z" fill="#005450"/>
</g>
</svg>
