<svg width="80" height="80" viewBox="0 0 80 80" fill="none" xmlns="http://www.w3.org/2000/svg">
<g id="Frame">
<path id="Vector" d="M71.1846 58.2473C72.9395 54.7867 73.8198 50.9488 73.7486 47.0694C73.6773 43.1899 72.6566 39.387 70.7758 35.9932C68.895 32.5995 66.2113 29.7182 62.9595 27.6013C59.7077 25.4845 55.9867 24.1967 52.1221 23.8504C50.9437 20.8656 49.1726 18.1506 46.9157 15.8693C44.6589 13.588 41.9632 11.7877 38.9913 10.5771C36.0194 9.36654 32.8331 8.77076 29.6245 8.82575C26.416 8.88075 23.2519 9.58539 20.3233 10.8971C17.3947 12.2089 14.7622 14.1005 12.5849 16.4578C10.4076 18.8151 8.73059 21.5892 7.65512 24.6126C6.57965 27.636 6.12804 30.846 6.32754 34.0488C6.52704 37.2516 7.37352 40.3807 8.81587 43.2473L6.4065 51.4379C6.21624 52.0843 6.20366 52.77 6.37009 53.4229C6.53652 54.0759 6.8758 54.6719 7.35226 55.1484C7.82872 55.6248 8.42475 55.9641 9.07769 56.1305C9.73063 56.297 10.4163 56.2844 11.0627 56.0941L19.2534 53.6848C21.9452 55.0486 24.8725 55.8865 27.8784 56.1535C29.0846 59.239 30.9229 62.038 33.2753 64.3707C35.6277 66.7033 38.4421 68.5181 41.5376 69.6982C44.6331 70.8784 47.9413 71.3979 51.2496 71.2234C54.5578 71.0488 57.793 70.1841 60.7471 68.6848L68.9378 71.0941C69.5841 71.2844 70.2699 71.297 70.9228 71.1305C71.5757 70.9641 72.1718 70.6248 72.6482 70.1484C73.1247 69.6719 73.464 69.0759 73.6304 68.4229C73.7968 67.77 73.7843 67.0843 73.594 66.4379L71.1846 58.2473ZM19.0315 51.1441L10.3565 53.6973C10.1393 53.7641 9.90801 53.7705 9.68745 53.7158C9.4669 53.661 9.26545 53.5472 9.10476 53.3865C8.94407 53.2258 8.83023 53.0244 8.77547 52.8038C8.72072 52.5833 8.72712 52.3519 8.794 52.1348L11.3471 43.4598C11.4361 43.1464 11.4014 42.8108 11.2502 42.5223C8.84956 38.0279 8.14373 32.8204 9.2614 27.8491C10.3791 22.8778 13.2458 18.4737 17.3392 15.4393C21.4325 12.4049 26.48 10.9424 31.5615 11.3182C36.643 11.6941 41.4202 13.8834 45.0226 17.487C48.6249 21.0906 50.8125 25.8687 51.1865 30.9503C51.5606 36.032 50.0963 41.0789 47.0604 45.1711C44.0246 49.2634 39.6193 52.1286 34.6476 53.2445C29.6759 54.3604 24.4688 53.6527 19.9752 51.2504C19.6863 51.0941 19.348 51.056 19.0315 51.1441ZM70.8815 68.3816C70.7212 68.5423 70.5201 68.6563 70.2999 68.7114C70.0796 68.7664 69.8486 68.7605 69.6315 68.6941L60.9565 66.141C60.6431 66.0521 60.3076 66.0867 60.019 66.2379C57.4527 67.6115 54.6316 68.4432 51.7307 68.6814C48.8297 68.9197 45.9107 68.5594 43.1547 67.623C40.3987 66.6865 37.8645 65.1939 35.7092 63.2376C33.5539 61.2813 31.8235 58.9031 30.6252 56.2504C34.2041 56.1558 37.7152 55.2535 40.8962 53.6107C44.0771 51.9679 46.8455 49.6273 48.9943 46.7638C51.1431 43.9003 52.6167 40.5881 53.305 37.0748C53.9933 33.5615 53.8785 29.938 52.969 26.4754C56.3541 26.9523 59.5743 28.2389 62.356 30.226C65.1378 32.213 67.3991 34.8419 68.948 37.8894C70.497 40.937 71.2878 44.3132 71.2533 47.7316C71.2189 51.15 70.3602 54.5097 68.7502 57.5254C68.5991 57.8139 68.5644 58.1495 68.6534 58.4629L71.2065 67.1379C71.27 67.3552 71.2734 67.5857 71.2161 67.8047C71.1589 68.0238 71.0432 68.2232 70.8815 68.3816Z" fill="#005450"/>
</g>
</svg>
