<svg width="80" height="80" viewBox="0 0 80 80" fill="none" xmlns="http://www.w3.org/2000/svg">
<g id="Frame">
<circle id="Ellipse 75" cx="40" cy="40" r="16" fill="#FEEBE9"/>
<path id="Vector" d="M70 16.25H10C9.66848 16.25 9.35054 16.3817 9.11612 16.6161C8.8817 16.8505 8.75 17.1685 8.75 17.5V60C8.75 60.9946 9.14509 61.9484 9.84835 62.6516C10.5516 63.3549 11.5054 63.75 12.5 63.75H67.5C68.4946 63.75 69.4484 63.3549 70.1516 62.6516C70.8549 61.9484 71.25 60.9946 71.25 60V17.5C71.25 17.1685 71.1183 16.8505 70.8839 16.6161C70.6495 16.3817 70.3315 16.25 70 16.25ZM40 43.3031L13.2125 18.75H66.7875L40 43.3031ZM32.6969 40L11.25 59.6594V20.3406L32.6969 40ZM34.5469 41.6969L39.1562 45.9375C39.3867 46.1483 39.6877 46.2652 40 46.2652C40.3123 46.2652 40.6133 46.1483 40.8438 45.9375L45.4531 41.7125L66.7875 61.25H13.2125L34.5469 41.6969ZM47.3031 40L68.75 20.3406V59.6594L47.3031 40Z" fill="#005450"/>
</g>
</svg>
