<svg width="80" height="80" viewBox="0 0 80 80" fill="none" xmlns="http://www.w3.org/2000/svg">
<g id="Frame">
<circle id="Ellipse 75" cx="41" cy="39" r="16" fill="#FEEBE9"/>
<path id="Vector" d="M43.75 40C43.75 40.4945 43.6034 40.9778 43.3287 41.3889C43.054 41.8 42.6635 42.1205 42.2067 42.3097C41.7499 42.4989 41.2472 42.5484 40.7623 42.452C40.2773 42.3555 39.8319 42.1174 39.4822 41.7678C39.1326 41.4181 38.8945 40.9727 38.798 40.4877C38.7016 40.0028 38.7511 39.5001 38.9403 39.0433C39.1295 38.5865 39.45 38.196 39.8611 37.9213C40.2722 37.6466 40.7555 37.5 41.25 37.5C41.913 37.5 42.5489 37.7634 43.0178 38.2322C43.4866 38.7011 43.75 39.337 43.75 40ZM27.5 37.5C27.0055 37.5 26.5222 37.6466 26.1111 37.9213C25.7 38.196 25.3795 38.5865 25.1903 39.0433C25.0011 39.5001 24.9516 40.0028 25.048 40.4877C25.1445 40.9727 25.3826 41.4181 25.7322 41.7678C26.0819 42.1174 26.5273 42.3555 27.0123 42.452C27.4972 42.5484 27.9999 42.4989 28.4567 42.3097C28.9135 42.1205 29.304 41.8 29.5787 41.3889C29.8534 40.9778 30 40.4945 30 40C30 39.337 29.7366 38.7011 29.2678 38.2322C28.7989 37.7634 28.163 37.5 27.5 37.5ZM55 37.5C54.5055 37.5 54.0222 37.6466 53.6111 37.9213C53.2 38.196 52.8795 38.5865 52.6903 39.0433C52.5011 39.5001 52.4516 40.0028 52.548 40.4877C52.6445 40.9727 52.8826 41.4181 53.2322 41.7678C53.5819 42.1174 54.0273 42.3555 54.5123 42.452C54.9972 42.5484 55.4999 42.4989 55.9567 42.3097C56.4135 42.1205 56.804 41.8 57.0787 41.3889C57.3534 40.9778 57.5 40.4945 57.5 40C57.5 39.337 57.2366 38.7011 56.7678 38.2322C56.2989 37.7634 55.663 37.5 55 37.5ZM71.25 38.75C71.2409 46.7037 68.0773 54.329 62.4532 59.9532C56.829 65.5773 49.2037 68.7409 41.25 68.75H15C14.0054 68.75 13.0516 68.3549 12.3483 67.6516C11.6451 66.9484 11.25 65.9946 11.25 65V38.75C11.25 30.7935 14.4107 23.1629 20.0368 17.5368C25.6629 11.9107 33.2935 8.75 41.25 8.75C49.2065 8.75 56.8371 11.9107 62.4632 17.5368C68.0893 23.1629 71.25 30.7935 71.25 38.75ZM68.75 38.75C68.75 31.4565 65.8527 24.4618 60.6954 19.3046C55.5382 14.1473 48.5435 11.25 41.25 11.25C33.9565 11.25 26.9618 14.1473 21.8046 19.3046C16.6473 24.4618 13.75 31.4565 13.75 38.75V65C13.75 65.3315 13.8817 65.6495 14.1161 65.8839C14.3505 66.1183 14.6685 66.25 15 66.25H41.25C48.5409 66.2417 55.5308 63.3418 60.6863 58.1863C65.8418 53.0308 68.7417 46.0409 68.75 38.75Z" fill="#005450"/>
</g>
</svg>
