<svg width="80" height="80" viewBox="0 0 80 80" fill="none" xmlns="http://www.w3.org/2000/svg">
<g id="Frame">
<circle id="Ellipse 75" cx="30" cy="32" r="16" fill="#FEEBE9"/>
<path id="Vector" d="M71.1846 58.2468C72.9395 54.7862 73.8198 50.9484 73.7486 47.0689C73.6773 43.1894 72.6566 39.3865 70.7758 35.9928C68.895 32.599 66.2113 29.7177 62.9595 27.6009C59.7077 25.484 55.9867 24.1962 52.1221 23.8499C50.9437 20.8651 49.1726 18.1501 46.9157 15.8688C44.6589 13.5875 41.9632 11.7872 38.9913 10.5766C36.0194 9.36605 32.8331 8.77027 29.6245 8.82527C26.416 8.88026 23.2519 9.5849 20.3233 10.8966C17.3947 12.2084 14.7622 14.1 12.5849 16.4573C10.4076 18.8146 8.73059 21.5887 7.65512 24.6121C6.57965 27.6355 6.12804 30.8455 6.32754 34.0483C6.52704 37.2511 7.37352 40.3802 8.81587 43.2468L6.4065 51.4374C6.21624 52.0838 6.20366 52.7695 6.37009 53.4225C6.53652 54.0754 6.8758 54.6714 7.35226 55.1479C7.82872 55.6244 8.42475 55.9636 9.07769 56.1301C9.73063 56.2965 10.4163 56.2839 11.0627 56.0937L19.2534 53.6843C21.9452 55.0481 24.8725 55.886 27.8784 56.153C29.0846 59.2385 30.9229 62.0375 33.2753 64.3702C35.6277 66.7029 38.4421 68.5176 41.5376 69.6978C44.6331 70.8779 47.9413 71.3974 51.2496 71.2229C54.5578 71.0483 57.793 70.1836 60.7471 68.6843L68.9378 71.0937C69.5841 71.2839 70.2699 71.2965 70.9228 71.1301C71.5757 70.9636 72.1718 70.6244 72.6482 70.1479C73.1247 69.6714 73.464 69.0754 73.6304 68.4225C73.7968 67.7695 73.7843 67.0838 73.594 66.4374L71.1846 58.2468ZM19.0315 51.1437L10.3565 53.6968C10.1393 53.7636 9.90801 53.7701 9.68745 53.7153C9.4669 53.6605 9.26545 53.5467 9.10476 53.386C8.94407 53.2253 8.83023 53.0239 8.77547 52.8033C8.72072 52.5828 8.72712 52.3515 8.794 52.1343L11.3471 43.4593C11.4361 43.1459 11.4014 42.8103 11.2502 42.5218C8.84956 38.0274 8.14373 32.82 9.2614 27.8487C10.3791 22.8774 13.2458 18.4732 17.3392 15.4388C21.4325 12.4044 26.48 10.9419 31.5615 11.3177C36.643 11.6936 41.4202 13.8829 45.0226 17.4865C48.6249 21.0902 50.8125 25.8682 51.1865 30.9499C51.5606 36.0315 50.0963 41.0784 47.0604 45.1707C44.0246 49.2629 39.6193 52.1281 34.6476 53.244C29.6759 54.3599 24.4688 53.6522 19.9752 51.2499C19.6863 51.0936 19.348 51.0556 19.0315 51.1437ZM70.8815 68.3811C70.7212 68.5418 70.5201 68.6558 70.2999 68.7109C70.0796 68.7659 69.8486 68.76 69.6315 68.6936L60.9565 66.1405C60.6431 66.0516 60.3076 66.0862 60.019 66.2374C57.4527 67.611 54.6316 68.4427 51.7307 68.6809C48.8297 68.9192 45.9107 68.5589 43.1547 67.6225C40.3987 66.6861 37.8645 65.1934 35.7092 63.2371C33.5539 61.2808 31.8235 58.9026 30.6252 56.2499C34.2041 56.1554 37.7152 55.253 40.8962 53.6102C44.0771 51.9674 46.8455 49.6268 48.9943 46.7633C51.1431 43.8998 52.6167 40.5876 53.305 37.0743C53.9933 33.561 53.8785 29.9375 52.969 26.4749C56.3541 26.9518 59.5743 28.2384 62.356 30.2255C65.1378 32.2125 67.3991 34.8414 68.948 37.8889C70.497 40.9365 71.2878 44.3127 71.2533 47.7311C71.2189 51.1495 70.3602 54.5092 68.7502 57.5249C68.5991 57.8135 68.5644 58.149 68.6534 58.4624L71.2065 67.1374C71.27 67.3547 71.2734 67.5852 71.2161 67.8043C71.1589 68.0233 71.0432 68.2227 70.8815 68.3811Z" fill="#005450"/>
</g>
</svg>
