<svg width="80" height="80" viewBox="0 0 80 80" fill="none" xmlns="http://www.w3.org/2000/svg">
<g id="Frame">
<circle id="Ellipse 75" cx="48" cy="44" r="16" fill="#FEEBE9"/>
<path id="Vector" d="M68.9938 50.6654L54.2375 44.0623C53.6655 43.8147 53.0408 43.7136 52.4198 43.7682C51.7989 43.8228 51.2014 44.0312 50.6813 44.3748C50.6397 44.4011 50.6 44.4304 50.5625 44.4623L42.8125 51.0685C42.6401 51.1737 42.4443 51.2347 42.2426 51.2462C42.0409 51.2576 41.8395 51.2192 41.6563 51.1342C36.5813 48.6842 31.3282 43.4717 28.8782 38.456C28.7915 38.2741 28.7513 38.0736 28.7611 37.8724C28.7709 37.6711 28.8304 37.4755 28.9344 37.3029L35.5594 29.4248C35.5907 29.3873 35.6188 29.3467 35.6469 29.306C35.9894 28.7867 36.1973 28.1902 36.2518 27.5705C36.3064 26.9508 36.2059 26.3272 35.9594 25.756L29.3438 11.0248C29.0244 10.2787 28.4716 9.65632 27.7684 9.25117C27.0651 8.84602 26.2494 8.67996 25.4438 8.7779C21.5112 9.2964 17.9018 11.2287 15.2898 14.214C12.6778 17.1992 11.2418 21.0332 11.25 24.9998C11.25 49.1248 30.875 68.7498 55 68.7498C58.9666 68.758 62.8006 67.322 65.7859 64.71C68.7711 62.098 70.7034 58.4886 71.2219 54.556C71.3191 53.754 71.1548 52.9421 70.7533 52.2411C70.3518 51.54 69.7347 50.9874 68.9938 50.6654ZM68.75 54.2435C68.3087 57.574 66.6696 60.6297 64.139 62.8394C61.6083 65.0491 58.3596 66.2614 55 66.2498C32.2563 66.2498 13.75 47.7435 13.75 24.9998C13.7384 21.6402 14.9508 18.3915 17.1604 15.8609C19.3701 13.3302 22.4258 11.6911 25.7563 11.2498C25.8062 11.2467 25.8563 11.2467 25.9063 11.2498C26.1529 11.2519 26.3934 11.3269 26.5974 11.4653C26.8015 11.6038 26.9601 11.7995 27.0532 12.0279L33.65 26.7592C33.727 26.9392 33.7606 27.1348 33.7481 27.3302C33.7356 27.5256 33.6774 27.7154 33.5782 27.8842L26.9563 35.7592C26.925 35.7998 26.8938 35.8373 26.8657 35.881C26.5129 36.4205 26.3051 37.0418 26.2624 37.685C26.2197 38.3282 26.3435 38.9715 26.6219 39.5529C29.3375 45.1123 34.9375 50.6716 40.5594 53.3873C41.1448 53.6639 41.7917 53.7842 42.4374 53.7365C43.083 53.6889 43.7054 53.4749 44.2438 53.1154L44.3594 53.0279L52.1188 46.4279C52.2848 46.3265 52.4725 46.266 52.6664 46.2513C52.8604 46.2366 53.0551 46.2682 53.2344 46.3435L67.9875 52.956C68.2365 53.0597 68.4453 53.241 68.5827 53.4731C68.7201 53.7051 68.7788 53.9754 68.75 54.2435Z" fill="#005450"/>
</g>
</svg>
