<svg width="80" height="80" viewBox="0 0 80 80" fill="none" xmlns="http://www.w3.org/2000/svg">
<g id="Frame">
<path id="Vector" d="M53.3844 31.6156C53.5006 31.7317 53.5928 31.8696 53.6557 32.0213C53.7186 32.1731 53.751 32.3357 53.751 32.5C53.751 32.6643 53.7186 32.8269 53.6557 32.9787C53.5928 33.1304 53.5006 33.2683 53.3844 33.3844L35.8844 50.8844C35.7683 51.0006 35.6304 51.0928 35.4787 51.1557C35.3269 51.2186 35.1643 51.251 35 51.251C34.8357 51.251 34.6731 51.2186 34.5213 51.1557C34.3696 51.0928 34.2317 51.0006 34.1156 50.8844L26.6156 43.3844C26.3811 43.1498 26.2493 42.8317 26.2493 42.5C26.2493 42.1683 26.3811 41.8502 26.6156 41.6156C26.8502 41.3811 27.1683 41.2493 27.5 41.2493C27.8317 41.2493 28.1498 41.3811 28.3844 41.6156L35 48.2312L51.6156 31.6156C51.7317 31.4994 51.8696 31.4072 52.0213 31.3443C52.1731 31.2814 52.3357 31.249 52.5 31.249C52.6643 31.249 52.8269 31.2814 52.9787 31.3443C53.1304 31.4072 53.2683 31.4994 53.3844 31.6156ZM71.25 40C71.25 46.1807 69.4172 52.2225 65.9834 57.3616C62.5496 62.5006 57.6691 66.506 51.9589 68.8712C46.2487 71.2365 39.9653 71.8553 33.9034 70.6495C27.8415 69.4437 22.2733 66.4675 17.9029 62.0971C13.5325 57.7267 10.5563 52.1585 9.35047 46.0966C8.14469 40.0347 8.76354 33.7513 11.1288 28.0411C13.494 22.331 17.4994 17.4504 22.6384 14.0166C27.7775 10.5828 33.8193 8.75 40 8.75C48.2852 8.7591 56.2285 12.0544 62.0871 17.913C67.9456 23.7715 71.2409 31.7148 71.25 40ZM68.75 40C68.75 34.3138 67.0639 28.7553 63.9048 24.0274C60.7457 19.2994 56.2555 15.6145 51.0022 13.4385C45.7488 11.2624 39.9681 10.6931 34.3912 11.8024C28.8142 12.9117 23.6915 15.6499 19.6707 19.6707C15.6499 23.6914 12.9118 28.8142 11.8024 34.3912C10.6931 39.9681 11.2625 45.7488 13.4385 51.0022C15.6145 56.2555 19.2995 60.7457 24.0274 63.9048C28.7553 67.0638 34.3138 68.75 40 68.75C47.6224 68.7417 54.9303 65.7101 60.3202 60.3202C65.7101 54.9303 68.7417 47.6224 68.75 40Z" fill="#005450"/>
</g>
</svg>
