<svg width="64" height="64" viewBox="0 0 64 64" fill="none" xmlns="http://www.w3.org/2000/svg">
<g id="Frame">
<path id="Vector" d="M32 7C27.0555 7 22.222 8.46622 18.1108 11.2133C13.9995 13.9603 10.7952 17.8648 8.90302 22.4329C7.01083 27.0011 6.51575 32.0277 7.48038 36.8773C8.44501 41.7268 10.826 46.1814 14.3223 49.6777C17.8187 53.174 22.2732 55.555 27.1228 56.5196C31.9723 57.4843 36.9989 56.9892 41.5671 55.097C46.1353 53.2048 50.0397 50.0005 52.7868 45.8893C55.5338 41.778 57 36.9445 57 32C56.9927 25.3718 54.3565 19.0172 49.6696 14.3304C44.9828 9.64354 38.6282 7.00728 32 7ZM33 54.9775V37H40C40.2652 37 40.5196 36.8946 40.7071 36.7071C40.8947 36.5196 41 36.2652 41 36C41 35.7348 40.8947 35.4804 40.7071 35.2929C40.5196 35.1054 40.2652 35 40 35H33V28C33 26.6739 33.5268 25.4021 34.4645 24.4645C35.4022 23.5268 36.6739 23 38 23H42C42.2652 23 42.5196 22.8946 42.7071 22.7071C42.8947 22.5196 43 22.2652 43 22C43 21.7348 42.8947 21.4804 42.7071 21.2929C42.5196 21.1054 42.2652 21 42 21H38C36.1435 21 34.363 21.7375 33.0503 23.0503C31.7375 24.363 31 26.1435 31 28V35H24C23.7348 35 23.4804 35.1054 23.2929 35.2929C23.1054 35.4804 23 35.7348 23 36C23 36.2652 23.1054 36.5196 23.2929 36.7071C23.4804 36.8946 23.7348 37 24 37H31V54.9775C24.9923 54.716 19.326 52.1122 15.2148 47.7237C11.1036 43.3351 8.87469 37.5111 9.00545 31.4991C9.13621 25.4872 11.6163 19.7655 15.9143 15.5599C20.2124 11.3543 25.9866 8.99925 32 8.99925C38.0134 8.99925 43.7876 11.3543 48.0857 15.5599C52.3838 19.7655 54.8638 25.4872 54.9946 31.4991C55.1253 37.5111 52.8964 43.3351 48.7852 47.7237C44.6741 52.1122 39.0077 54.716 33 54.9775Z" fill="#005450"/>
</g>
</svg>
