<svg width="88" height="89" viewBox="0 0 88 89" fill="none" xmlns="http://www.w3.org/2000/svg">
<path d="M75.626 14.7236V27.0986C75.626 27.4633 75.4811 27.813 75.2233 28.0709C74.9654 28.3288 74.6157 28.4736 74.251 28.4736C73.8863 28.4736 73.5366 28.3288 73.2787 28.0709C73.0208 27.813 72.876 27.4633 72.876 27.0986V16.0986H61.876C61.5113 16.0986 61.1616 15.9538 60.9037 15.6959C60.6458 15.438 60.501 15.0883 60.501 14.7236C60.501 14.359 60.6458 14.0092 60.9037 13.7514C61.1616 13.4935 61.5113 13.3486 61.876 13.3486H74.251C74.6157 13.3486 74.9654 13.4935 75.2233 13.7514C75.4811 14.0092 75.626 14.359 75.626 14.7236ZM74.251 61.4736C73.8863 61.4736 73.5366 61.6185 73.2787 61.8764C73.0208 62.1342 72.876 62.484 72.876 62.8486V73.8486H61.876C61.5113 73.8486 61.1616 73.9935 60.9037 74.2514C60.6458 74.5092 60.501 74.859 60.501 75.2236C60.501 75.5883 60.6458 75.938 60.9037 76.1959C61.1616 76.4538 61.5113 76.5986 61.876 76.5986H74.251C74.6157 76.5986 74.9654 76.4538 75.2233 76.1959C75.4811 75.938 75.626 75.5883 75.626 75.2236V62.8486C75.626 62.484 75.4811 62.1342 75.2233 61.8764C74.9654 61.6185 74.6157 61.4736 74.251 61.4736ZM26.126 73.8486H15.126V62.8486C15.126 62.484 14.9811 62.1342 14.7232 61.8764C14.4654 61.6185 14.1156 61.4736 13.751 61.4736C13.3863 61.4736 13.0366 61.6185 12.7787 61.8764C12.5208 62.1342 12.376 62.484 12.376 62.8486V75.2236C12.376 75.5883 12.5208 75.938 12.7787 76.1959C13.0366 76.4538 13.3863 76.5986 13.751 76.5986H26.126C26.4906 76.5986 26.8404 76.4538 27.0982 76.1959C27.3561 75.938 27.501 75.5883 27.501 75.2236C27.501 74.859 27.3561 74.5092 27.0982 74.2514C26.8404 73.9935 26.4906 73.8486 26.126 73.8486ZM13.751 28.4736C14.1156 28.4736 14.4654 28.3288 14.7232 28.0709C14.9811 27.813 15.126 27.4633 15.126 27.0986V16.0986H26.126C26.4906 16.0986 26.8404 15.9538 27.0982 15.6959C27.3561 15.438 27.501 15.0883 27.501 14.7236C27.501 14.359 27.3561 14.0092 27.0982 13.7514C26.8404 13.4935 26.4906 13.3486 26.126 13.3486H13.751C13.3863 13.3486 13.0366 13.4935 12.7787 13.7514C12.5208 14.0092 12.376 14.359 12.376 14.7236V27.0986C12.376 27.4633 12.5208 27.813 12.7787 28.0709C13.0366 28.3288 13.3863 28.4736 13.751 28.4736ZM60.501 60.0986C60.2875 60.0986 60.077 60.0489 59.8861 59.9535C59.6951 59.858 59.5291 59.7194 59.401 59.5486C57.6079 57.1579 55.2828 55.2174 52.6098 53.8809C49.9369 52.5444 46.9894 51.8486 44.001 51.8486C41.0125 51.8486 38.0651 52.5444 35.3921 53.8809C32.7191 55.2174 30.3941 57.1579 28.601 59.5486C28.3822 59.8404 28.0564 60.0332 27.6954 60.0848C27.3344 60.1364 26.9677 60.0424 26.676 59.8236C26.3842 59.6048 26.1914 59.2791 26.1398 58.9181C26.0882 58.5571 26.1822 58.1904 26.401 57.8986C29.1915 54.1555 33.1062 51.4031 37.5729 50.0439C35.2655 48.6413 33.4802 46.5225 32.4893 44.0107C31.4984 41.4988 31.3563 38.7318 32.0846 36.1317C32.8129 33.5315 34.3717 31.241 36.5231 29.6093C38.6746 27.9776 41.3008 27.0945 44.001 27.0945C46.7012 27.0945 49.3273 27.9776 51.4788 29.6093C53.6303 31.241 55.1891 33.5315 55.9174 36.1317C56.6456 38.7318 56.5035 41.4988 55.5126 44.0107C54.5217 46.5225 52.7365 48.6413 50.4291 50.0439C54.8957 51.4031 58.8104 54.1555 61.601 57.8986C61.7542 58.1029 61.8475 58.3458 61.8704 58.6002C61.8934 58.8545 61.845 59.1102 61.7308 59.3386C61.6166 59.5669 61.4411 59.759 61.2239 59.8933C61.0066 60.0275 60.7563 60.0986 60.501 60.0986ZM44.001 49.0986C45.9046 49.0986 47.7655 48.5341 49.3483 47.4765C50.9312 46.4189 52.1648 44.9157 52.8933 43.157C53.6218 41.3982 53.8124 39.463 53.441 37.5959C53.0697 35.7288 52.153 34.0138 50.8069 32.6677C49.4608 31.3216 47.7458 30.405 45.8787 30.0336C44.0117 29.6622 42.0764 29.8528 40.3176 30.5813C38.5589 31.3098 37.0557 32.5434 35.9981 34.1263C34.9405 35.7091 34.376 37.57 34.376 39.4736C34.376 42.0263 35.39 44.4745 37.1951 46.2795C39.0001 48.0846 41.4483 49.0986 44.001 49.0986Z" fill="#FEFEFE"/>
</svg>
