<svg width="64" height="64" viewBox="0 0 64 64" fill="none" xmlns="http://www.w3.org/2000/svg">
<g id="Frame">
<path id="Vector" d="M32 21C29.8244 21 27.6977 21.6451 25.8887 22.8538C24.0798 24.0625 22.6699 25.7805 21.8373 27.7905C21.0048 29.8005 20.7869 32.0122 21.2114 34.146C21.6358 36.2798 22.6834 38.2398 24.2218 39.7782C25.7602 41.3166 27.7202 42.3642 29.854 42.7886C31.9878 43.2131 34.1995 42.9952 36.2095 42.1627C38.2195 41.3301 39.9375 39.9202 41.1462 38.1113C42.3549 36.3023 43 34.1756 43 32C42.9967 29.0836 41.8367 26.2877 39.7745 24.2255C37.7123 22.1633 34.9164 21.0033 32 21ZM32 41C30.22 41 28.4799 40.4722 26.9999 39.4832C25.5198 38.4943 24.3663 37.0887 23.6851 35.4441C23.0039 33.7996 22.8257 31.99 23.1729 30.2442C23.5202 28.4984 24.3774 26.8947 25.636 25.636C26.8947 24.3774 28.4984 23.5202 30.2442 23.1729C31.99 22.8257 33.7996 23.0039 35.4441 23.6851C37.0887 24.3663 38.4943 25.5198 39.4832 26.9999C40.4722 28.4799 41 30.22 41 32C41 34.3869 40.0518 36.6761 38.364 38.364C36.6761 40.0518 34.3869 41 32 41ZM44 7H20C16.5534 7.00397 13.2491 8.37488 10.812 10.812C8.37488 13.2491 7.00397 16.5534 7 20V44C7.00397 47.4466 8.37488 50.7509 10.812 53.188C13.2491 55.6251 16.5534 56.996 20 57H44C47.4466 56.996 50.7509 55.6251 53.188 53.188C55.6251 50.7509 56.996 47.4466 57 44V20C56.996 16.5534 55.6251 13.2491 53.188 10.812C50.7509 8.37488 47.4466 7.00397 44 7ZM55 44C54.9967 46.9164 53.8367 49.7123 51.7745 51.7745C49.7123 53.8367 46.9164 54.9967 44 55H20C17.0836 54.9967 14.2877 53.8367 12.2255 51.7745C10.1633 49.7123 9.00331 46.9164 9 44V20C9.00331 17.0836 10.1633 14.2877 12.2255 12.2255C14.2877 10.1633 17.0836 9.00331 20 9H44C46.9164 9.00331 49.7123 10.1633 51.7745 12.2255C53.8367 14.2877 54.9967 17.0836 55 20V44ZM47 19C47 19.3956 46.8827 19.7822 46.6629 20.1111C46.4432 20.44 46.1308 20.6964 45.7654 20.8478C45.3999 20.9991 44.9978 21.0387 44.6098 20.9616C44.2219 20.8844 43.8655 20.6939 43.5858 20.4142C43.3061 20.1345 43.1156 19.7781 43.0384 19.3902C42.9613 19.0022 43.0009 18.6001 43.1522 18.2346C43.3036 17.8692 43.56 17.5568 43.8889 17.3371C44.2178 17.1173 44.6044 17 45 17C45.5304 17 46.0391 17.2107 46.4142 17.5858C46.7893 17.9609 47 18.4696 47 19Z" fill="#005450"/>
</g>
</svg>
