<svg width="132" height="44" viewBox="0 0 132 44" fill="none" xmlns="http://www.w3.org/2000/svg">
<rect width="44" height="44" rx="9.51351" fill="#005450"/>
<path d="M30.2414 22L39.5312 16.6375L35.4062 9.4875L26.125 14.85V4.125H17.875V14.85L8.59375 9.4875L4.46875 16.6375L13.7586 22L4.46875 27.3625L8.59375 34.5125L17.875 29.15V39.875H26.125V29.15L35.4062 34.5125L39.5312 27.3625L30.2414 22Z" fill="#FEFEFE"/>
<path d="M60.8257 18.9336H56.9336V16.4787H60.8257C61.4272 16.4787 61.9168 16.3808 62.2945 16.1849C62.6722 15.9821 62.9484 15.7024 63.1233 15.3457C63.2981 14.989 63.3855 14.5868 63.3855 14.1392C63.3855 13.6846 63.2981 13.2615 63.1233 12.8698C62.9484 12.4781 62.6722 12.1634 62.2945 11.9256C61.9168 11.6878 61.4272 11.5689 60.8257 11.5689H58.0246V24.3784H54.8773V9.10352H60.8257C62.0217 9.10352 63.0463 9.32033 63.8996 9.75396C64.7599 10.1806 65.4173 10.7716 65.8719 11.5269C66.3265 12.2823 66.5538 13.1461 66.5538 14.1182C66.5538 15.1044 66.3265 15.9576 65.8719 16.678C65.4173 17.3984 64.7599 17.9544 63.8996 18.3461C63.0463 18.7378 62.0217 18.9336 60.8257 18.9336ZM74.5375 21.8186V16.7619C74.5375 16.3983 74.478 16.087 74.3591 15.8283C74.2402 15.5625 74.0549 15.3562 73.8031 15.2093C73.5583 15.0624 73.2401 14.989 72.8484 14.989C72.5127 14.989 72.2225 15.0484 71.9777 15.1673C71.7329 15.2792 71.544 15.4436 71.4112 15.6604C71.2783 15.8702 71.2118 16.1185 71.2118 16.4053H68.1904C68.1904 15.9227 68.3023 15.4646 68.5261 15.0309C68.7499 14.5973 69.0752 14.2161 69.5018 13.8874C69.9284 13.5517 70.4355 13.2894 71.023 13.1006C71.6175 12.9118 72.2819 12.8173 73.0163 12.8173C73.8975 12.8173 74.6809 12.9642 75.3663 13.258C76.0517 13.5517 76.5902 13.9923 76.9819 14.5798C77.3805 15.1673 77.5799 15.9017 77.5799 16.7829V21.6403C77.5799 22.2627 77.6183 22.7733 77.6953 23.172C77.7722 23.5636 77.8841 23.9063 78.031 24.2001V24.3784H74.9781C74.8312 24.0707 74.7193 23.686 74.6424 23.2244C74.5725 22.7558 74.5375 22.2872 74.5375 21.8186ZM74.9361 17.4648L74.9571 19.1749H73.2681C72.8694 19.1749 72.5232 19.2203 72.2295 19.3113C71.9357 19.4022 71.6944 19.5316 71.5056 19.6994C71.3167 19.8603 71.1769 20.0491 71.0859 20.2659C71.002 20.4828 70.96 20.7206 70.96 20.9793C70.96 21.2381 71.0195 21.4724 71.1384 21.6822C71.2573 21.8851 71.4286 22.0459 71.6525 22.1648C71.8763 22.2767 72.1385 22.3327 72.4393 22.3327C72.8939 22.3327 73.2891 22.2418 73.6248 22.0599C73.9605 21.8781 74.2193 21.6543 74.4011 21.3885C74.5899 21.1227 74.6879 20.8709 74.6948 20.6331L75.4922 21.913C75.3803 22.1998 75.2264 22.497 75.0306 22.8048C74.8417 23.1125 74.6004 23.4028 74.3067 23.6755C74.0129 23.9413 73.6597 24.1616 73.2471 24.3365C72.8344 24.5043 72.3449 24.5882 71.7783 24.5882C71.058 24.5882 70.404 24.4449 69.8165 24.1581C69.236 23.8644 68.7744 23.4622 68.4317 22.9516C68.096 22.4341 67.9281 21.8466 67.9281 21.1892C67.9281 20.5947 68.0401 20.0666 68.2639 19.605C68.4877 19.1434 68.8164 18.7552 69.25 18.4405C69.6906 18.1188 70.2397 17.8775 70.8971 17.7166C71.5545 17.5488 72.3169 17.4648 73.1841 17.4648H74.9361ZM84.5984 22.2278C84.969 22.2278 85.2978 22.1578 85.5845 22.0179C85.8713 21.8711 86.0951 21.6682 86.2559 21.4095C86.4238 21.1437 86.5112 20.8325 86.5182 20.4758H89.3613C89.3543 21.2731 89.141 21.983 88.7213 22.6054C88.3017 23.2209 87.7387 23.707 87.0323 24.0637C86.3259 24.4134 85.5356 24.5882 84.6613 24.5882C83.7801 24.5882 83.0107 24.4414 82.3533 24.1476C81.7028 23.8539 81.1608 23.4482 80.7272 22.9307C80.2935 22.4061 79.9683 21.7976 79.7515 21.1052C79.5347 20.4058 79.4263 19.6575 79.4263 18.8602V18.5559C79.4263 17.7516 79.5347 17.0032 79.7515 16.3108C79.9683 15.6114 80.2935 15.003 80.7272 14.4854C81.1608 13.9609 81.7028 13.5517 82.3533 13.258C83.0037 12.9642 83.7661 12.8173 84.6403 12.8173C85.5705 12.8173 86.3853 12.9957 87.0847 13.3524C87.7911 13.7091 88.3436 14.2196 88.7423 14.8841C89.148 15.5415 89.3543 16.3213 89.3613 17.2236H86.5182C86.5112 16.8459 86.4308 16.5032 86.2769 16.1954C86.13 15.8877 85.9132 15.6429 85.6265 15.4611C85.3467 15.2722 85.0005 15.1778 84.5879 15.1778C84.1472 15.1778 83.787 15.2722 83.5073 15.4611C83.2275 15.6429 83.0107 15.8947 82.8568 16.2164C82.703 16.5311 82.5946 16.8913 82.5316 17.297C82.4757 17.6956 82.4477 18.1153 82.4477 18.5559V18.8602C82.4477 19.3008 82.4757 19.7239 82.5316 20.1296C82.5876 20.5352 82.6925 20.8954 82.8464 21.2101C83.0072 21.5249 83.2275 21.7732 83.5073 21.955C83.787 22.1368 84.1507 22.2278 84.5984 22.2278ZM94.3025 13.0272V24.3784H91.2706V13.0272H94.3025ZM91.0818 10.0687C91.0818 9.62807 91.2357 9.26438 91.5434 8.97763C91.8511 8.69087 92.2638 8.54749 92.7813 8.54749C93.2919 8.54749 93.701 8.69087 94.0088 8.97763C94.3235 9.26438 94.4809 9.62807 94.4809 10.0687C94.4809 10.5093 94.3235 10.873 94.0088 11.1598C93.701 11.4465 93.2919 11.5899 92.7813 11.5899C92.2638 11.5899 91.8511 11.4465 91.5434 11.1598C91.2357 10.873 91.0818 10.5093 91.0818 10.0687ZM102.024 24.5882C101.143 24.5882 100.352 24.4484 99.6529 24.1686C98.9535 23.8818 98.3591 23.4867 97.8695 22.9831C97.3869 22.4795 97.0162 21.8955 96.7574 21.2311C96.4986 20.5597 96.3693 19.8463 96.3693 19.091V18.6713C96.3693 17.811 96.4917 17.0242 96.7364 16.3108C96.9812 15.5974 97.3309 14.9785 97.7855 14.4539C98.2471 13.9294 98.8067 13.5272 99.4641 13.2475C100.122 12.9607 100.863 12.8173 101.688 12.8173C102.493 12.8173 103.206 12.9502 103.828 13.216C104.451 13.4818 104.972 13.8594 105.392 14.349C105.818 14.8386 106.14 15.4261 106.357 16.1115C106.574 16.7899 106.682 17.5453 106.682 18.3776V19.6365H97.6597V17.6222H103.713V17.3914C103.713 16.9718 103.636 16.5976 103.482 16.2689C103.335 15.9332 103.111 15.6674 102.811 15.4716C102.51 15.2757 102.125 15.1778 101.657 15.1778C101.258 15.1778 100.915 15.2652 100.629 15.4401C100.342 15.6149 100.108 15.8597 99.9257 16.1745C99.7509 16.4892 99.618 16.8599 99.5271 17.2865C99.4431 17.7061 99.4012 18.1677 99.4012 18.6713V19.091C99.4012 19.5456 99.4641 19.9652 99.59 20.3499C99.7229 20.7345 99.9082 21.0668 100.146 21.3465C100.391 21.6263 100.685 21.8431 101.027 21.997C101.377 22.1508 101.772 22.2278 102.213 22.2278C102.758 22.2278 103.265 22.1229 103.734 21.913C104.21 21.6962 104.619 21.371 104.961 20.9374L106.43 22.532C106.192 22.8747 105.867 23.2034 105.454 23.5182C105.049 23.8329 104.559 24.0917 103.986 24.2945C103.412 24.4903 102.758 24.5882 102.024 24.5882ZM111.361 15.4506V24.3784H108.339V13.0272H111.172L111.361 15.4506ZM110.92 18.3041H110.102C110.102 17.4648 110.21 16.7095 110.427 16.0381C110.644 15.3597 110.948 14.7826 111.34 14.3071C111.732 13.8245 112.197 13.4573 112.735 13.2055C113.281 12.9467 113.889 12.8173 114.561 12.8173C115.092 12.8173 115.578 12.8943 116.019 13.0481C116.46 13.202 116.837 13.4468 117.152 13.7825C117.474 14.1182 117.718 14.5623 117.886 15.1149C118.061 15.6674 118.149 16.3423 118.149 17.1396V24.3784H115.106V17.1291C115.106 16.6256 115.036 16.2339 114.896 15.9541C114.756 15.6744 114.55 15.4786 114.277 15.3666C114.012 15.2477 113.683 15.1883 113.291 15.1883C112.886 15.1883 112.532 15.2687 112.232 15.4296C111.938 15.5905 111.693 15.8143 111.497 16.101C111.308 16.3808 111.165 16.7095 111.067 17.0872C110.969 17.4648 110.92 17.8705 110.92 18.3041ZM126.006 13.0272V15.1673H119.397V13.0272H126.006ZM121.034 10.2261H124.055V20.9584C124.055 21.2871 124.097 21.5389 124.181 21.7137C124.272 21.8886 124.405 22.0109 124.58 22.0809C124.754 22.1438 124.975 22.1753 125.24 22.1753C125.429 22.1753 125.597 22.1683 125.744 22.1543C125.898 22.1333 126.027 22.1124 126.132 22.0914L126.143 24.3155C125.884 24.3994 125.604 24.4658 125.303 24.5148C125.003 24.5638 124.67 24.5882 124.307 24.5882C123.642 24.5882 123.062 24.4798 122.565 24.263C122.076 24.0392 121.698 23.6825 121.432 23.1929C121.166 22.7034 121.034 22.0599 121.034 21.2626V10.2261ZM127.874 22.9202C127.874 22.4726 128.028 22.0984 128.335 21.7976C128.65 21.4969 129.066 21.3465 129.584 21.3465C130.101 21.3465 130.514 21.4969 130.822 21.7976C131.136 22.0984 131.294 22.4726 131.294 22.9202C131.294 23.3678 131.136 23.742 130.822 24.0427C130.514 24.3434 130.101 24.4938 129.584 24.4938C129.066 24.4938 128.65 24.3434 128.335 24.0427C128.028 23.742 127.874 23.3678 127.874 22.9202Z" fill="#0A0D12"/>
<path d="M59.4565 35.5365H60.5453C60.4886 36.0582 60.3393 36.5251 60.0973 36.9372C59.8554 37.3493 59.5132 37.6763 59.0709 37.9183C58.6286 38.1564 58.0766 38.2755 57.415 38.2755C56.9311 38.2755 56.4907 38.1848 56.0937 38.0033C55.7006 37.8219 55.3622 37.5648 55.0787 37.2321C54.7951 36.8956 54.5758 36.493 54.4208 36.0242C54.2696 35.5516 54.194 35.0261 54.194 34.4477V33.6255C54.194 33.047 54.2696 32.5234 54.4208 32.0546C54.5758 31.5821 54.797 31.1776 55.0843 30.8411C55.3754 30.5046 55.7251 30.2457 56.1334 30.0642C56.5417 29.8827 57.0011 29.792 57.5114 29.792C58.1352 29.792 58.6626 29.9092 59.0936 30.1436C59.5246 30.378 59.8592 30.7031 60.0973 31.119C60.3393 31.531 60.4886 32.0093 60.5453 32.5537H59.4565C59.4036 32.1681 59.3053 31.8373 59.1616 31.5613C59.018 31.2815 58.8138 31.066 58.5492 30.9148C58.2846 30.7636 57.9386 30.688 57.5114 30.688C57.1447 30.688 56.8215 30.7579 56.5417 30.8978C56.2657 31.0377 56.0332 31.2362 55.8442 31.4932C55.659 31.7503 55.5191 32.0584 55.4246 32.4176C55.3301 32.7767 55.2828 33.1756 55.2828 33.6141V34.4477C55.2828 34.8522 55.3244 35.2322 55.4076 35.5876C55.4945 35.9429 55.6249 36.2548 55.7988 36.5232C55.9728 36.7917 56.1939 37.0034 56.4623 37.1584C56.7308 37.3096 57.0483 37.3852 57.415 37.3852C57.88 37.3852 58.2505 37.3115 58.5265 37.164C58.8025 37.0166 59.0104 36.8049 59.1503 36.5289C59.294 36.2529 59.396 35.9221 59.4565 35.5365ZM63.0178 29.4517V38.1621H61.963V29.4517H63.0178ZM68.4561 36.7444V32.0263H69.5109V38.1621H68.5071L68.4561 36.7444ZM68.6546 35.4515L69.0912 35.4401C69.0912 35.8484 69.0478 36.2265 68.9608 36.5743C68.8776 36.9183 68.7415 37.217 68.5525 37.4703C68.3635 37.7236 68.1159 37.922 67.8096 38.0657C67.5034 38.2056 67.131 38.2755 66.6925 38.2755C66.3938 38.2755 66.1197 38.232 65.8702 38.1451C65.6245 38.0581 65.4128 37.9239 65.2351 37.7425C65.0574 37.561 64.9194 37.3247 64.8211 37.0336C64.7266 36.7425 64.6793 36.3928 64.6793 35.9845V32.0263H65.7284V35.9959C65.7284 36.2718 65.7587 36.5006 65.8192 36.682C65.8834 36.8597 65.9685 37.0015 66.0744 37.1073C66.184 37.2094 66.305 37.2812 66.4373 37.3228C66.5734 37.3644 66.7133 37.3852 66.8569 37.3852C67.303 37.3852 67.6565 37.3001 67.9174 37.13C68.1782 36.9561 68.3654 36.7236 68.4788 36.4325C68.596 36.1376 68.6546 35.8106 68.6546 35.4515ZM71.1044 29.4517H72.1591V36.9712L72.0684 38.1621H71.1044V29.4517ZM76.3045 35.0432V35.1622C76.3045 35.6084 76.2516 36.0223 76.1457 36.4042C76.0399 36.7822 75.8849 37.1111 75.6807 37.3909C75.4766 37.6706 75.2271 37.888 74.9322 38.043C74.6373 38.198 74.2989 38.2755 73.9171 38.2755C73.5277 38.2755 73.1856 38.2094 72.8907 38.077C72.5996 37.9409 72.3538 37.7462 72.1535 37.493C71.9531 37.2397 71.7924 36.9334 71.6715 36.5743C71.5543 36.2151 71.473 35.8106 71.4276 35.3607V34.839C71.473 34.3853 71.5543 33.9789 71.6715 33.6198C71.7924 33.2606 71.9531 32.9544 72.1535 32.7011C72.3538 32.444 72.5996 32.2493 72.8907 32.117C73.1818 31.9809 73.5201 31.9129 73.9058 31.9129C74.2914 31.9129 74.6335 31.9885 74.9322 32.1397C75.2308 32.2871 75.4804 32.4989 75.6807 32.7748C75.8849 33.0508 76.0399 33.3816 76.1457 33.7672C76.2516 34.1491 76.3045 34.5744 76.3045 35.0432ZM75.2497 35.1622V35.0432C75.2497 34.7369 75.2214 34.4496 75.1647 34.1812C75.108 33.909 75.0172 33.6708 74.8925 33.4667C74.7677 33.2587 74.6033 33.0962 74.3991 32.979C74.195 32.858 73.9436 32.7975 73.6449 32.7975C73.3803 32.7975 73.1496 32.8429 72.9531 32.9336C72.7603 33.0244 72.5958 33.1472 72.4597 33.3022C72.3236 33.4534 72.2121 33.6273 72.1251 33.8239C72.0419 34.0167 71.9796 34.2171 71.938 34.425V35.7917C71.9985 36.0563 72.0968 36.3115 72.2329 36.5573C72.3727 36.7992 72.558 36.9977 72.7886 37.1527C73.023 37.3077 73.3122 37.3852 73.6562 37.3852C73.9398 37.3852 74.1817 37.3285 74.3821 37.2151C74.5863 37.0979 74.7507 36.9372 74.8755 36.7331C75.004 36.5289 75.0985 36.2926 75.159 36.0242C75.2195 35.7558 75.2497 35.4685 75.2497 35.1622Z" fill="#0A0D12"/>
</svg>
