<svg width="132" height="44" viewBox="0 0 132 44" fill="none" xmlns="http://www.w3.org/2000/svg">
<rect x="0.5" y="0.5" width="43" height="43" rx="9.01351" fill="#005450"/>
<rect x="0.5" y="0.5" width="43" height="43" rx="9.01351" stroke="#FEFEFE"/>
<path d="M30.2414 22L39.5312 16.6375L35.4062 9.4875L26.125 14.85V4.125H17.875V14.85L8.59375 9.4875L4.46875 16.6375L13.7586 22L4.46875 27.3625L8.59375 34.5125L17.875 29.15V39.875H26.125V29.15L35.4062 34.5125L39.5312 27.3625L30.2414 22Z" fill="#FEFEFE"/>
<path d="M60.8257 18.9331H56.9336V16.4782H60.8257C61.4272 16.4782 61.9168 16.3803 62.2945 16.1845C62.6722 15.9816 62.9484 15.7019 63.1233 15.3452C63.2981 14.9885 63.3855 14.5863 63.3855 14.1387C63.3855 13.6841 63.2981 13.261 63.1233 12.8693C62.9484 12.4776 62.6722 12.1629 62.2945 11.9251C61.9168 11.6873 61.4272 11.5684 60.8257 11.5684H58.0246V24.3779H54.8773V9.10303H60.8257C62.0217 9.10303 63.0463 9.31984 63.8996 9.75347C64.7599 10.1801 65.4173 10.7711 65.8719 11.5265C66.3265 12.2818 66.5538 13.1456 66.5538 14.1177C66.5538 15.1039 66.3265 15.9572 65.8719 16.6775C65.4173 17.3979 64.7599 17.9539 63.8996 18.3456C63.0463 18.7373 62.0217 18.9331 60.8257 18.9331ZM74.5375 21.8181V16.7615C74.5375 16.3978 74.478 16.0865 74.3591 15.8278C74.2402 15.562 74.0549 15.3557 73.8031 15.2088C73.5583 15.0619 73.2401 14.9885 72.8484 14.9885C72.5127 14.9885 72.2225 15.0479 71.9777 15.1668C71.7329 15.2787 71.544 15.4431 71.4112 15.6599C71.2783 15.8697 71.2118 16.118 71.2118 16.4048H68.1904C68.1904 15.9222 68.3023 15.4641 68.5261 15.0304C68.7499 14.5968 69.0752 14.2156 69.5018 13.8869C69.9284 13.5512 70.4355 13.2889 71.023 13.1001C71.6175 12.9113 72.2819 12.8168 73.0163 12.8168C73.8975 12.8168 74.6809 12.9637 75.3663 13.2575C76.0517 13.5512 76.5902 13.9918 76.9819 14.5793C77.3805 15.1668 77.5799 15.9012 77.5799 16.7824V21.6398C77.5799 22.2622 77.6183 22.7728 77.6953 23.1715C77.7722 23.5631 77.8841 23.9058 78.031 24.1996V24.3779H74.9781C74.8312 24.0702 74.7193 23.6855 74.6424 23.2239C74.5725 22.7553 74.5375 22.2867 74.5375 21.8181ZM74.9361 17.4644L74.9571 19.1744H73.2681C72.8694 19.1744 72.5232 19.2199 72.2295 19.3108C71.9357 19.4017 71.6944 19.5311 71.5056 19.6989C71.3167 19.8598 71.1769 20.0486 71.0859 20.2655C71.002 20.4823 70.96 20.7201 70.96 20.9788C70.96 21.2376 71.0195 21.4719 71.1384 21.6817C71.2573 21.8846 71.4286 22.0454 71.6525 22.1643C71.8763 22.2762 72.1385 22.3322 72.4393 22.3322C72.8939 22.3322 73.2891 22.2413 73.6248 22.0594C73.9605 21.8776 74.2193 21.6538 74.4011 21.388C74.5899 21.1222 74.6879 20.8704 74.6948 20.6326L75.4922 21.9125C75.3803 22.1993 75.2264 22.4965 75.0306 22.8043C74.8417 23.112 74.6004 23.4023 74.3067 23.675C74.0129 23.9408 73.6597 24.1611 73.2471 24.336C72.8344 24.5038 72.3449 24.5877 71.7783 24.5877C71.058 24.5877 70.404 24.4444 69.8165 24.1576C69.236 23.8639 68.7744 23.4617 68.4317 22.9512C68.096 22.4336 67.9281 21.8461 67.9281 21.1887C67.9281 20.5942 68.0401 20.0661 68.2639 19.6045C68.4877 19.1429 68.8164 18.7548 69.25 18.44C69.6906 18.1183 70.2397 17.877 70.8971 17.7161C71.5545 17.5483 72.3169 17.4644 73.1841 17.4644H74.9361ZM84.5984 22.2273C84.969 22.2273 85.2978 22.1573 85.5845 22.0175C85.8713 21.8706 86.0951 21.6678 86.2559 21.409C86.4238 21.1432 86.5112 20.832 86.5182 20.4753H89.3613C89.3543 21.2726 89.141 21.9825 88.7213 22.605C88.3017 23.2204 87.7387 23.7065 87.0323 24.0632C86.3259 24.4129 85.5356 24.5877 84.6613 24.5877C83.7801 24.5877 83.0107 24.4409 82.3533 24.1471C81.7028 23.8534 81.1608 23.4477 80.7272 22.9302C80.2935 22.4056 79.9683 21.7971 79.7515 21.1047C79.5347 20.4053 79.4263 19.657 79.4263 18.8597V18.5554C79.4263 17.7511 79.5347 17.0028 79.7515 16.3103C79.9683 15.6109 80.2935 15.0025 80.7272 14.4849C81.1608 13.9604 81.7028 13.5512 82.3533 13.2575C83.0037 12.9637 83.7661 12.8168 84.6403 12.8168C85.5705 12.8168 86.3853 12.9952 87.0847 13.3519C87.7911 13.7086 88.3436 14.2191 88.7423 14.8836C89.148 15.541 89.3543 16.3208 89.3613 17.2231H86.5182C86.5112 16.8454 86.4308 16.5027 86.2769 16.1949C86.13 15.8872 85.9132 15.6424 85.6265 15.4606C85.3467 15.2717 85.0005 15.1773 84.5879 15.1773C84.1472 15.1773 83.787 15.2717 83.5073 15.4606C83.2275 15.6424 83.0107 15.8942 82.8568 16.2159C82.703 16.5307 82.5946 16.8909 82.5316 17.2965C82.4757 17.6952 82.4477 18.1148 82.4477 18.5554V18.8597C82.4477 19.3003 82.4757 19.7234 82.5316 20.1291C82.5876 20.5347 82.6925 20.8949 82.8464 21.2096C83.0072 21.5244 83.2275 21.7727 83.5073 21.9545C83.787 22.1364 84.1507 22.2273 84.5984 22.2273ZM94.3025 13.0267V24.3779H91.2706V13.0267H94.3025ZM91.0818 10.0682C91.0818 9.62758 91.2357 9.26389 91.5434 8.97714C91.8511 8.69038 92.2638 8.54701 92.7813 8.54701C93.2919 8.54701 93.701 8.69038 94.0088 8.97714C94.3235 9.26389 94.4809 9.62758 94.4809 10.0682C94.4809 10.5088 94.3235 10.8725 94.0088 11.1593C93.701 11.446 93.2919 11.5894 92.7813 11.5894C92.2638 11.5894 91.8511 11.446 91.5434 11.1593C91.2357 10.8725 91.0818 10.5088 91.0818 10.0682ZM102.024 24.5877C101.143 24.5877 100.352 24.4479 99.6529 24.1681C98.9535 23.8814 98.3591 23.4862 97.8695 22.9826C97.3869 22.4791 97.0162 21.8951 96.7574 21.2306C96.4986 20.5592 96.3693 19.8458 96.3693 19.0905V18.6708C96.3693 17.8106 96.4917 17.0237 96.7364 16.3103C96.9812 15.597 97.3309 14.978 97.7855 14.4534C98.2471 13.9289 98.8067 13.5267 99.4641 13.247C100.122 12.9602 100.863 12.8168 101.688 12.8168C102.493 12.8168 103.206 12.9497 103.828 13.2155C104.451 13.4813 104.972 13.859 105.392 14.3485C105.818 14.8381 106.14 15.4256 106.357 16.111C106.574 16.7894 106.682 17.5448 106.682 18.3771V19.636H97.6597V17.6217H103.713V17.3909C103.713 16.9713 103.636 16.5971 103.482 16.2684C103.335 15.9327 103.111 15.6669 102.811 15.4711C102.51 15.2752 102.125 15.1773 101.657 15.1773C101.258 15.1773 100.915 15.2647 100.629 15.4396C100.342 15.6144 100.108 15.8592 99.9257 16.174C99.7509 16.4887 99.618 16.8594 99.5271 17.286C99.4431 17.7057 99.4012 18.1673 99.4012 18.6708V19.0905C99.4012 19.5451 99.4641 19.9647 99.59 20.3494C99.7229 20.7341 99.9082 21.0663 100.146 21.346C100.391 21.6258 100.685 21.8426 101.027 21.9965C101.377 22.1503 101.772 22.2273 102.213 22.2273C102.758 22.2273 103.265 22.1224 103.734 21.9125C104.21 21.6957 104.619 21.3705 104.961 20.9369L106.43 22.5315C106.192 22.8742 105.867 23.2029 105.454 23.5177C105.049 23.8324 104.559 24.0912 103.986 24.294C103.412 24.4898 102.758 24.5877 102.024 24.5877ZM111.361 15.4501V24.3779H108.339V13.0267H111.172L111.361 15.4501ZM110.92 18.3036H110.102C110.102 17.4644 110.21 16.709 110.427 16.0376C110.644 15.3592 110.948 14.7822 111.34 14.3066C111.732 13.824 112.197 13.4568 112.735 13.205C113.281 12.9462 113.889 12.8168 114.561 12.8168C115.092 12.8168 115.578 12.8938 116.019 13.0476C116.46 13.2015 116.837 13.4463 117.152 13.782C117.474 14.1177 117.718 14.5618 117.886 15.1144C118.061 15.6669 118.149 16.3418 118.149 17.1391V24.3779H115.106V17.1286C115.106 16.6251 115.036 16.2334 114.896 15.9537C114.756 15.6739 114.55 15.4781 114.277 15.3662C114.012 15.2473 113.683 15.1878 113.291 15.1878C112.886 15.1878 112.532 15.2682 112.232 15.4291C111.938 15.59 111.693 15.8138 111.497 16.1005C111.308 16.3803 111.165 16.709 111.067 17.0867C110.969 17.4644 110.92 17.87 110.92 18.3036ZM126.006 13.0267V15.1668H119.397V13.0267H126.006ZM121.034 10.2256H124.055V20.9579C124.055 21.2866 124.097 21.5384 124.181 21.7132C124.272 21.8881 124.405 22.0105 124.58 22.0804C124.754 22.1433 124.975 22.1748 125.24 22.1748C125.429 22.1748 125.597 22.1678 125.744 22.1538C125.898 22.1329 126.027 22.1119 126.132 22.0909L126.143 24.315C125.884 24.3989 125.604 24.4654 125.303 24.5143C125.003 24.5633 124.67 24.5877 124.307 24.5877C123.642 24.5877 123.062 24.4793 122.565 24.2625C122.076 24.0387 121.698 23.682 121.432 23.1924C121.166 22.7029 121.034 22.0594 121.034 21.2621V10.2256ZM127.874 22.9197C127.874 22.4721 128.028 22.0979 128.335 21.7971C128.65 21.4964 129.066 21.346 129.584 21.346C130.101 21.346 130.514 21.4964 130.822 21.7971C131.136 22.0979 131.294 22.4721 131.294 22.9197C131.294 23.3673 131.136 23.7415 130.822 24.0422C130.514 24.343 130.101 24.4933 129.584 24.4933C129.066 24.4933 128.65 24.343 128.335 24.0422C128.028 23.7415 127.874 23.3673 127.874 22.9197Z" fill="#FEFEFE"/>
<path d="M59.4565 35.5365H60.5453C60.4886 36.0582 60.3393 36.5251 60.0973 36.9372C59.8554 37.3493 59.5132 37.6763 59.0709 37.9183C58.6286 38.1564 58.0766 38.2755 57.415 38.2755C56.9311 38.2755 56.4907 38.1848 56.0937 38.0033C55.7006 37.8219 55.3622 37.5648 55.0787 37.2321C54.7951 36.8956 54.5758 36.493 54.4208 36.0242C54.2696 35.5516 54.194 35.0261 54.194 34.4477V33.6255C54.194 33.047 54.2696 32.5234 54.4208 32.0546C54.5758 31.5821 54.797 31.1776 55.0843 30.8411C55.3754 30.5046 55.7251 30.2457 56.1334 30.0642C56.5417 29.8827 57.0011 29.792 57.5114 29.792C58.1352 29.792 58.6626 29.9092 59.0936 30.1436C59.5246 30.378 59.8592 30.7031 60.0973 31.119C60.3393 31.531 60.4886 32.0093 60.5453 32.5537H59.4565C59.4036 32.1681 59.3053 31.8373 59.1616 31.5613C59.018 31.2815 58.8138 31.066 58.5492 30.9148C58.2846 30.7636 57.9386 30.688 57.5114 30.688C57.1447 30.688 56.8215 30.7579 56.5417 30.8978C56.2657 31.0377 56.0332 31.2362 55.8442 31.4932C55.659 31.7503 55.5191 32.0584 55.4246 32.4176C55.3301 32.7767 55.2828 33.1756 55.2828 33.6141V34.4477C55.2828 34.8522 55.3244 35.2322 55.4076 35.5876C55.4945 35.9429 55.6249 36.2548 55.7988 36.5232C55.9728 36.7917 56.1939 37.0034 56.4623 37.1584C56.7308 37.3096 57.0483 37.3852 57.415 37.3852C57.88 37.3852 58.2505 37.3115 58.5265 37.164C58.8025 37.0166 59.0104 36.8049 59.1503 36.5289C59.294 36.2529 59.396 35.9221 59.4565 35.5365ZM63.0178 29.4517V38.1621H61.963V29.4517H63.0178ZM68.4561 36.7444V32.0263H69.5109V38.1621H68.5071L68.4561 36.7444ZM68.6546 35.4515L69.0912 35.4401C69.0912 35.8484 69.0478 36.2265 68.9608 36.5743C68.8776 36.9183 68.7415 37.217 68.5525 37.4703C68.3635 37.7236 68.1159 37.922 67.8096 38.0657C67.5034 38.2056 67.131 38.2755 66.6925 38.2755C66.3938 38.2755 66.1197 38.232 65.8702 38.1451C65.6245 38.0581 65.4128 37.9239 65.2351 37.7425C65.0574 37.561 64.9194 37.3247 64.8211 37.0336C64.7266 36.7425 64.6793 36.3928 64.6793 35.9845V32.0263H65.7284V35.9959C65.7284 36.2718 65.7587 36.5006 65.8192 36.682C65.8834 36.8597 65.9685 37.0015 66.0744 37.1073C66.184 37.2094 66.305 37.2812 66.4373 37.3228C66.5734 37.3644 66.7133 37.3852 66.8569 37.3852C67.303 37.3852 67.6565 37.3001 67.9174 37.13C68.1782 36.9561 68.3654 36.7236 68.4788 36.4325C68.596 36.1376 68.6546 35.8106 68.6546 35.4515ZM71.1044 29.4517H72.1591V36.9712L72.0684 38.1621H71.1044V29.4517ZM76.3045 35.0432V35.1622C76.3045 35.6084 76.2516 36.0223 76.1457 36.4042C76.0399 36.7822 75.8849 37.1111 75.6807 37.3909C75.4766 37.6706 75.2271 37.888 74.9322 38.043C74.6373 38.198 74.2989 38.2755 73.9171 38.2755C73.5277 38.2755 73.1856 38.2094 72.8907 38.077C72.5996 37.9409 72.3538 37.7462 72.1535 37.493C71.9531 37.2397 71.7924 36.9334 71.6715 36.5743C71.5543 36.2151 71.473 35.8106 71.4276 35.3607V34.839C71.473 34.3853 71.5543 33.9789 71.6715 33.6198C71.7924 33.2606 71.9531 32.9544 72.1535 32.7011C72.3538 32.444 72.5996 32.2493 72.8907 32.117C73.1818 31.9809 73.5201 31.9129 73.9058 31.9129C74.2914 31.9129 74.6335 31.9885 74.9322 32.1397C75.2308 32.2871 75.4804 32.4989 75.6807 32.7748C75.8849 33.0508 76.0399 33.3816 76.1457 33.7672C76.2516 34.1491 76.3045 34.5744 76.3045 35.0432ZM75.2497 35.1622V35.0432C75.2497 34.7369 75.2214 34.4496 75.1647 34.1812C75.108 33.909 75.0172 33.6708 74.8925 33.4667C74.7677 33.2587 74.6033 33.0962 74.3991 32.979C74.195 32.858 73.9436 32.7975 73.6449 32.7975C73.3803 32.7975 73.1496 32.8429 72.9531 32.9336C72.7603 33.0244 72.5958 33.1472 72.4597 33.3022C72.3236 33.4534 72.2121 33.6273 72.1251 33.8239C72.0419 34.0167 71.9796 34.2171 71.938 34.425V35.7917C71.9985 36.0563 72.0968 36.3115 72.2329 36.5573C72.3727 36.7992 72.558 36.9977 72.7886 37.1527C73.023 37.3077 73.3122 37.3852 73.6562 37.3852C73.9398 37.3852 74.1817 37.3285 74.3821 37.2151C74.5863 37.0979 74.7507 36.9372 74.8755 36.7331C75.004 36.5289 75.0985 36.2926 75.159 36.0242C75.2195 35.7558 75.2497 35.4685 75.2497 35.1622Z" fill="#FEFEFE"/>
</svg>
