<svg width="80" height="80" viewBox="0 0 80 80" fill="none" xmlns="http://www.w3.org/2000/svg">
<path d="M67.5 28.75H51.25V12.5C51.25 11.5054 50.8549 10.5516 50.1516 9.84835C49.4484 9.14509 48.4946 8.75 47.5 8.75H32.5C31.5054 8.75 30.5516 9.14509 29.8483 9.84835C29.1451 10.5516 28.75 11.5054 28.75 12.5V28.75H12.5C11.5054 28.75 10.5516 29.1451 9.84835 29.8483C9.14509 30.5516 8.75 31.5054 8.75 32.5V47.5C8.75 48.4946 9.14509 49.4484 9.84835 50.1516C10.5516 50.8549 11.5054 51.25 12.5 51.25H28.75V67.5C28.75 68.4946 29.1451 69.4484 29.8483 70.1516C30.5516 70.8549 31.5054 71.25 32.5 71.25H47.5C48.4946 71.25 49.4484 70.8549 50.1516 70.1516C50.8549 69.4484 51.25 68.4946 51.25 67.5V51.25H67.5C68.4946 51.25 69.4484 50.8549 70.1516 50.1516C70.8549 49.4484 71.25 48.4946 71.25 47.5V32.5C71.25 31.5054 70.8549 30.5516 70.1516 29.8483C69.4484 29.1451 68.4946 28.75 67.5 28.75ZM68.75 47.5C68.75 47.8315 68.6183 48.1495 68.3839 48.3839C68.1495 48.6183 67.8315 48.75 67.5 48.75H50C49.6685 48.75 49.3505 48.8817 49.1161 49.1161C48.8817 49.3505 48.75 49.6685 48.75 50V67.5C48.75 67.8315 48.6183 68.1495 48.3839 68.3839C48.1495 68.6183 47.8315 68.75 47.5 68.75H32.5C32.1685 68.75 31.8505 68.6183 31.6161 68.3839C31.3817 68.1495 31.25 67.8315 31.25 67.5V50C31.25 49.6685 31.1183 49.3505 30.8839 49.1161C30.6495 48.8817 30.3315 48.75 30 48.75H12.5C12.1685 48.75 11.8505 48.6183 11.6161 48.3839C11.3817 48.1495 11.25 47.8315 11.25 47.5V32.5C11.25 32.1685 11.3817 31.8505 11.6161 31.6161C11.8505 31.3817 12.1685 31.25 12.5 31.25H30C30.3315 31.25 30.6495 31.1183 30.8839 30.8839C31.1183 30.6495 31.25 30.3315 31.25 30V12.5C31.25 12.1685 31.3817 11.8505 31.6161 11.6161C31.8505 11.3817 32.1685 11.25 32.5 11.25H47.5C47.8315 11.25 48.1495 11.3817 48.3839 11.6161C48.6183 11.8505 48.75 12.1685 48.75 12.5V30C48.75 30.3315 48.8817 30.6495 49.1161 30.8839C49.3505 31.1183 49.6685 31.25 50 31.25H67.5C67.8315 31.25 68.1495 31.3817 68.3839 31.6161C68.6183 31.8505 68.75 32.1685 68.75 32.5V47.5Z" fill="#005450"/>
</svg>
