<svg width="80" height="80" viewBox="0 0 80 80" fill="none" xmlns="http://www.w3.org/2000/svg">
<g id="Frame">
<path id="Vector" d="M77.5 66.25H73.75V40C73.75 39.0054 73.3549 38.0516 72.6516 37.3483C71.9484 36.6451 70.9946 36.25 70 36.25H51.25V15C51.25 14.0054 50.8549 13.0516 50.1516 12.3483C49.4484 11.6451 48.4946 11.25 47.5 11.25H17.5C16.5054 11.25 15.5516 11.6451 14.8483 12.3483C14.1451 13.0516 13.75 14.0054 13.75 15V66.25H10C9.66848 66.25 9.35054 66.3817 9.11612 66.6161C8.8817 66.8505 8.75 67.1685 8.75 67.5C8.75 67.8315 8.8817 68.1495 9.11612 68.3839C9.35054 68.6183 9.66848 68.75 10 68.75H77.5C77.8315 68.75 78.1495 68.6183 78.3839 68.3839C78.6183 68.1495 78.75 67.8315 78.75 67.5C78.75 67.1685 78.6183 66.8505 78.3839 66.6161C78.1495 66.3817 77.8315 66.25 77.5 66.25ZM70 38.75C70.3315 38.75 70.6495 38.8817 70.8839 39.1161C71.1183 39.3505 71.25 39.6685 71.25 40V66.25H51.25V38.75H70ZM16.25 15C16.25 14.6685 16.3817 14.3505 16.6161 14.1161C16.8505 13.8817 17.1685 13.75 17.5 13.75H47.5C47.8315 13.75 48.1495 13.8817 48.3839 14.1161C48.6183 14.3505 48.75 14.6685 48.75 15V66.25H41.25V50C41.25 49.6685 41.1183 49.3505 40.8839 49.1161C40.6495 48.8817 40.3315 48.75 40 48.75H25C24.6685 48.75 24.3505 48.8817 24.1161 49.1161C23.8817 49.3505 23.75 49.6685 23.75 50V66.25H16.25V15ZM38.75 66.25H26.25V51.25H38.75V66.25ZM23.75 30C23.75 29.6685 23.8817 29.3505 24.1161 29.1161C24.3505 28.8817 24.6685 28.75 25 28.75H31.25V22.5C31.25 22.1685 31.3817 21.8505 31.6161 21.6161C31.8505 21.3817 32.1685 21.25 32.5 21.25C32.8315 21.25 33.1495 21.3817 33.3839 21.6161C33.6183 21.8505 33.75 22.1685 33.75 22.5V28.75H40C40.3315 28.75 40.6495 28.8817 40.8839 29.1161C41.1183 29.3505 41.25 29.6685 41.25 30C41.25 30.3315 41.1183 30.6495 40.8839 30.8839C40.6495 31.1183 40.3315 31.25 40 31.25H33.75V37.5C33.75 37.8315 33.6183 38.1495 33.3839 38.3839C33.1495 38.6183 32.8315 38.75 32.5 38.75C32.1685 38.75 31.8505 38.6183 31.6161 38.3839C31.3817 38.1495 31.25 37.8315 31.25 37.5V31.25H25C24.6685 31.25 24.3505 31.1183 24.1161 30.8839C23.8817 30.6495 23.75 30.3315 23.75 30Z" fill="#005450"/>
</g>
</svg>
