<svg width="80" height="80" viewBox="0 0 80 80" fill="none" xmlns="http://www.w3.org/2000/svg">
<g id="Frame">
<path id="Vector" d="M65.8844 21.6156L53.3844 9.11563C53.2682 8.99958 53.1303 8.90756 52.9786 8.84483C52.8268 8.78209 52.6642 8.74987 52.5 8.75H27.5C26.5054 8.75 25.5516 9.14509 24.8483 9.84835C24.1451 10.5516 23.75 11.5054 23.75 12.5V18.75H17.5C16.5054 18.75 15.5516 19.1451 14.8483 19.8483C14.1451 20.5516 13.75 21.5054 13.75 22.5V67.5C13.75 68.4946 14.1451 69.4484 14.8483 70.1516C15.5516 70.8549 16.5054 71.25 17.5 71.25H52.5C53.4946 71.25 54.4484 70.8549 55.1516 70.1516C55.8549 69.4484 56.25 68.4946 56.25 67.5V61.25H62.5C63.4946 61.25 64.4484 60.8549 65.1516 60.1516C65.8549 59.4484 66.25 58.4946 66.25 57.5V22.5C66.2501 22.3358 66.2179 22.1732 66.1552 22.0214C66.0924 21.8697 66.0004 21.7318 65.8844 21.6156ZM53.75 67.5C53.75 67.8315 53.6183 68.1495 53.3839 68.3839C53.1495 68.6183 52.8315 68.75 52.5 68.75H17.5C17.1685 68.75 16.8505 68.6183 16.6161 68.3839C16.3817 68.1495 16.25 67.8315 16.25 67.5V22.5C16.25 22.1685 16.3817 21.8505 16.6161 21.6161C16.8505 21.3817 17.1685 21.25 17.5 21.25H41.9812L53.75 33.0188V67.5ZM63.75 57.5C63.75 57.8315 63.6183 58.1495 63.3839 58.3839C63.1495 58.6183 62.8315 58.75 62.5 58.75H56.25V32.5C56.2501 32.3358 56.2179 32.1732 56.1552 32.0214C56.0924 31.8697 56.0004 31.7318 55.8844 31.6156L43.3844 19.1156C43.2682 18.9996 43.1303 18.9076 42.9786 18.8448C42.8268 18.7821 42.6642 18.7499 42.5 18.75H26.25V12.5C26.25 12.1685 26.3817 11.8505 26.6161 11.6161C26.8505 11.3817 27.1685 11.25 27.5 11.25H51.9812L63.75 23.0188V57.5ZM43.75 47.5C43.75 47.8315 43.6183 48.1495 43.3839 48.3839C43.1495 48.6183 42.8315 48.75 42.5 48.75H27.5C27.1685 48.75 26.8505 48.6183 26.6161 48.3839C26.3817 48.1495 26.25 47.8315 26.25 47.5C26.25 47.1685 26.3817 46.8505 26.6161 46.6161C26.8505 46.3817 27.1685 46.25 27.5 46.25H42.5C42.8315 46.25 43.1495 46.3817 43.3839 46.6161C43.6183 46.8505 43.75 47.1685 43.75 47.5ZM43.75 57.5C43.75 57.8315 43.6183 58.1495 43.3839 58.3839C43.1495 58.6183 42.8315 58.75 42.5 58.75H27.5C27.1685 58.75 26.8505 58.6183 26.6161 58.3839C26.3817 58.1495 26.25 57.8315 26.25 57.5C26.25 57.1685 26.3817 56.8505 26.6161 56.6161C26.8505 56.3817 27.1685 56.25 27.5 56.25H42.5C42.8315 56.25 43.1495 56.3817 43.3839 56.6161C43.6183 56.8505 43.75 57.1685 43.75 57.5Z" fill="#005450"/>
</g>
</svg>
