<svg width="80" height="80" viewBox="0 0 80 80" fill="none" xmlns="http://www.w3.org/2000/svg">
<g id="Frame">
<path id="Vector" d="M11.25 20C11.25 19.6685 11.3817 19.3505 11.6161 19.1161C11.8505 18.8817 12.1685 18.75 12.5 18.75H67.5C67.8315 18.75 68.1495 18.8817 68.3839 19.1161C68.6183 19.3505 68.75 19.6685 68.75 20C68.75 20.3315 68.6183 20.6495 68.3839 20.8839C68.1495 21.1183 67.8315 21.25 67.5 21.25H12.5C12.1685 21.25 11.8505 21.1183 11.6161 20.8839C11.3817 20.6495 11.25 20.3315 11.25 20ZM12.5 41.25H32.5C32.8315 41.25 33.1495 41.1183 33.3839 40.8839C33.6183 40.6495 33.75 40.3315 33.75 40C33.75 39.6685 33.6183 39.3505 33.3839 39.1161C33.1495 38.8817 32.8315 38.75 32.5 38.75H12.5C12.1685 38.75 11.8505 38.8817 11.6161 39.1161C11.3817 39.3505 11.25 39.6685 11.25 40C11.25 40.3315 11.3817 40.6495 11.6161 40.8839C11.8505 41.1183 12.1685 41.25 12.5 41.25ZM37.5 58.75H12.5C12.1685 58.75 11.8505 58.8817 11.6161 59.1161C11.3817 59.3505 11.25 59.6685 11.25 60C11.25 60.3315 11.3817 60.6495 11.6161 60.8839C11.8505 61.1183 12.1685 61.25 12.5 61.25H37.5C37.8315 61.25 38.1495 61.1183 38.3839 60.8839C38.6183 60.6495 38.75 60.3315 38.75 60C38.75 59.6685 38.6183 59.3505 38.3839 59.1161C38.1495 58.8817 37.8315 58.75 37.5 58.75ZM76.25 45C76.25 49.5344 73.575 54.0625 68.3 58.4594C65.9056 60.4428 63.3114 62.1719 60.5594 63.6188C60.3857 63.7057 60.1942 63.7509 60 63.7509C59.8058 63.7509 59.6143 63.7057 59.4406 63.6188C56.6886 62.1719 54.0944 60.4428 51.7 58.4594C46.425 54.0625 43.75 49.5344 43.75 45C43.7508 43.0873 44.3784 41.2275 45.5367 39.7053C46.6949 38.1831 48.32 37.0824 50.1633 36.5716C52.0066 36.0608 53.9665 36.1681 55.743 36.877C57.5195 37.5859 59.0148 38.8574 60 40.4969C60.9852 38.8574 62.4805 37.5859 64.257 36.877C66.0335 36.1681 67.9934 36.0608 69.8367 36.5716C71.68 37.0824 73.3051 38.1831 74.4633 39.7053C75.6216 41.2275 76.2492 43.0873 76.25 45ZM73.75 45C73.75 43.3424 73.0915 41.7527 71.9194 40.5806C70.7473 39.4085 69.1576 38.75 67.5 38.75C65.8424 38.75 64.2527 39.4085 63.0806 40.5806C61.9085 41.7527 61.25 43.3424 61.25 45C61.25 45.3315 61.1183 45.6495 60.8839 45.8839C60.6495 46.1183 60.3315 46.25 60 46.25C59.6685 46.25 59.3505 46.1183 59.1161 45.8839C58.8817 45.6495 58.75 45.3315 58.75 45C58.75 43.3424 58.0915 41.7527 56.9194 40.5806C55.7473 39.4085 54.1576 38.75 52.5 38.75C50.8424 38.75 49.2527 39.4085 48.0806 40.5806C46.9085 41.7527 46.25 43.3424 46.25 45C46.25 53.0625 57.3563 59.6344 60 61.0844C62.6437 59.6344 73.75 53.0625 73.75 45Z" fill="#005450"/>
</g>
</svg>
