<svg width="50" height="48" viewBox="0 0 50 48" fill="none" xmlns="http://www.w3.org/2000/svg">
<path id="Star 42" d="M21.8461 2.04295C23.4476 -0.00997245 26.5524 -0.00997365 28.1539 2.04295L34.8257 10.5955C35.2879 11.1881 35.9078 11.6385 36.6142 11.895L46.8099 15.5974C49.2572 16.4861 50.2167 19.4389 48.7591 21.5964L42.6868 30.5845C42.2661 31.2073 42.0293 31.936 42.0036 32.6871L41.6331 43.5279C41.5442 46.13 39.0324 47.955 36.5301 47.2355L26.1054 44.2379C25.3831 44.0302 24.6169 44.0302 23.8946 44.2379L13.4699 47.2355C10.9676 47.955 8.4558 46.13 8.36687 43.5279L7.99636 32.6871C7.97068 31.936 7.73391 31.2073 7.31318 30.5845L1.2409 21.5964C-0.216673 19.4389 0.742763 16.4861 3.19009 15.5974L13.3858 11.895C14.0922 11.6385 14.7121 11.1881 15.1743 10.5955L21.8461 2.04295Z" fill="#005450"/>
</svg>
