<svg width="32" height="32" viewBox="0 0 32 32" fill="none" xmlns="http://www.w3.org/2000/svg">
<g id="viber 2" clip-path="url(#clip0_30_207)">
<g id="Group 271">
<circle id="Ellipse 70" cx="16" cy="16" r="16" fill="#8E24AA"/>
<g id="Group">
<path id="Vector" d="M24.0745 17.4205C24.611 12.9042 23.8167 10.053 22.3839 8.76335L22.3847 8.7626C20.0722 6.56029 12.2626 6.23433 9.49606 8.86151C8.25366 10.1466 7.81604 12.0327 7.76808 14.3677C7.72013 16.7033 7.66318 21.0787 11.7403 22.2657H11.7441L11.7403 24.0783C11.7403 24.0783 11.7126 24.8127 12.1817 24.9603C12.7182 25.1342 12.961 24.7932 14.6298 22.8C17.4203 23.042 19.5634 22.4875 19.807 22.4066C20.3705 22.2177 23.5589 21.7959 24.0745 17.4205ZM14.9048 21.5246C14.9048 21.5246 13.1386 23.7269 12.5893 24.2986C12.4095 24.4845 12.2124 24.4673 12.2154 24.0986C12.2154 23.8565 12.2289 21.0892 12.2289 21.0892C8.7722 20.0986 8.97602 16.3729 9.01349 14.4239C9.05095 12.4741 9.40764 10.8772 10.4597 9.80193C12.8868 7.52619 19.7335 8.03499 21.478 9.67455C23.6106 11.5651 22.8515 16.9064 22.856 17.0885C22.4177 20.7408 19.8339 20.9723 19.3589 21.1304C19.1558 21.1979 17.2712 21.6827 14.9048 21.5246Z" fill="#FEFEFE"/>
<path id="Vector_2" d="M15.8819 10.23C15.5934 10.23 15.5934 10.6796 15.8819 10.6833C18.1202 10.7006 19.9635 12.2607 19.9838 15.1224C19.9838 15.4244 20.4259 15.4207 20.4221 15.1187C20.3982 12.0351 18.3847 10.2472 15.8819 10.23Z" fill="#FEFEFE"/>
<path id="Vector_3" d="M18.8261 14.6478C18.8193 14.946 19.2607 14.9603 19.2645 14.6583C19.3012 12.958 18.2528 11.5575 16.2828 11.4099C15.9943 11.3889 15.9644 11.8423 16.2521 11.8632C17.9606 11.9929 18.8606 13.1588 18.8261 14.6478Z" fill="#FEFEFE"/>
<path id="Vector_4" d="M18.3541 16.5818C17.984 16.3675 17.607 16.5009 17.4512 16.7114L17.1252 17.1333C16.9596 17.3476 16.6501 17.3191 16.6501 17.3191C14.3916 16.7219 13.7877 14.3585 13.7877 14.3585C13.7877 14.3585 13.7599 14.0385 13.9667 13.8669L14.3744 13.5297C14.5782 13.3679 14.7071 12.9782 14.4995 12.5953C13.945 11.5934 13.5726 11.248 13.383 10.9827C13.1837 10.7332 12.884 10.677 12.5722 10.8456H12.5655C11.9173 11.2248 11.2077 11.9344 11.4347 12.665C11.8221 13.4353 12.534 15.8909 14.803 17.7463C15.8693 18.6237 17.5568 19.5229 18.2732 19.7305L18.2799 19.741C18.9858 19.9763 19.6722 19.2389 20.0386 18.5713V18.566C20.2012 18.2431 20.1473 17.9373 19.9098 17.7373C19.4886 17.3266 18.8532 16.8733 18.3541 16.5818Z" fill="#FEFEFE"/>
<path id="Vector_5" d="M16.5915 13.0827C17.3117 13.1247 17.6609 13.5009 17.6983 14.2734C17.7118 14.5754 18.1502 14.5544 18.1367 14.2525C18.0887 13.2438 17.5627 12.6818 16.6155 12.6294C16.327 12.6122 16.3001 13.0655 16.5915 13.0827Z" fill="#FEFEFE"/>
</g>
</g>
</g>
<defs>
<clipPath id="clip0_30_207">
<rect width="32" height="32" fill="white"/>
</clipPath>
</defs>
</svg>
