<svg width="32" height="32" viewBox="0 0 32 32" fill="none" xmlns="http://www.w3.org/2000/svg">
<g id="whatsapp">
<path id="bg" d="M0 16C0 24.8366 7.16344 32 16 32C24.8366 32 32 24.8366 32 16C32 7.16344 24.8366 0 16 0C7.16344 0 0 7.16344 0 16Z" fill="#25D366"/>
<path id="whatsapp_2" fill-rule="evenodd" clip-rule="evenodd" d="M22.3 9.5875C20.6125 7.9 18.3625 7 16 7C11.05 7 7 11.05 7 16C7 17.575 7.45001 19.15 8.23751 20.5L7 25L11.725 23.7625C13.075 24.4375 14.5375 24.8875 16 24.8875C20.95 24.8875 25 20.8375 25 15.8875C25 13.525 23.9875 11.275 22.3 9.5875ZM16 23.425C14.65 23.425 13.3 23.0875 12.175 22.4125L11.95 22.3L9.13749 23.0875L9.92501 20.3875L9.69999 20.05C8.91249 18.8125 8.57499 17.4625 8.57499 16.1125C8.57499 12.0625 11.95 8.6875 16 8.6875C18.025 8.6875 19.825 9.475 21.2875 10.825C22.75 12.2875 23.425 14.0875 23.425 16.1125C23.425 20.05 20.1625 23.425 16 23.425ZM20.05 17.8C19.825 17.6875 18.7 17.125 18.475 17.125C18.25 17.0125 18.1375 17.0125 18.025 17.2375C17.9125 17.4625 17.4625 17.9125 17.35 18.1375C17.2375 18.25 17.125 18.25 16.9 18.25C16.675 18.1375 16 17.9125 15.1 17.125C14.425 16.5625 13.975 15.775 13.8625 15.55C13.75 15.325 13.8625 15.2125 13.975 15.1C14.0875 14.9875 14.2 14.875 14.3125 14.7625C14.425 14.65 14.425 14.5375 14.5375 14.425C14.65 14.3125 14.5375 14.2 14.5375 14.0875C14.5375 13.975 14.0875 12.85 13.8625 12.4C13.75 12.0625 13.525 12.0625 13.4125 12.0625C13.3 12.0625 13.1875 12.0625 12.9625 12.0625C12.85 12.0625 12.625 12.0625 12.4 12.2875C12.175 12.5125 11.6125 13.075 11.6125 14.2C11.6125 15.325 12.4 16.3375 12.5125 16.5625C12.625 16.675 14.0875 19.0375 16.3375 19.9375C18.25 20.725 18.5875 20.5 19.0375 20.5C19.4875 20.5 20.3875 19.9375 20.5 19.4875C20.725 18.925 20.725 18.475 20.6125 18.475C20.5 17.9125 20.275 17.9125 20.05 17.8Z" fill="white"/>
</g>
</svg>
