<svg width="32" height="32" viewBox="0 0 32 32" fill="none" xmlns="http://www.w3.org/2000/svg">
<g id="telegram">
<path id="bg" d="M0 16C0 24.8366 7.16344 32 16 32C24.8366 32 32 24.8366 32 16C32 7.16344 24.8366 0 16 0C7.16344 0 0 7.16344 0 16Z" fill="#0088CC"/>
<path id="telegram_2" d="M7.23741 15.027C12.0692 13.0513 15.2912 11.7487 16.9033 11.1194C21.5063 9.32264 22.4627 9.01052 23.0861 9.0001C23.2232 8.99794 23.5298 9.02983 23.7284 9.18106C23.8961 9.30876 23.9422 9.48125 23.9643 9.60232C23.9864 9.72339 24.0139 9.99919 23.992 10.2147C23.7426 12.6744 22.6633 18.6434 22.1142 21.3983C21.8818 22.564 21.4244 22.9548 20.9815 22.9931C20.0189 23.0762 19.288 22.3961 18.3558 21.8226C16.897 20.9251 16.0729 20.3664 14.6569 19.4907C13.0205 18.4786 14.0813 17.9224 15.0139 17.0133C15.258 16.7754 19.4988 13.1552 19.5809 12.8268C19.5912 12.7857 19.6007 12.6326 19.5038 12.5517C19.4069 12.4709 19.2639 12.4985 19.1606 12.5205C19.0143 12.5517 16.6839 13.9973 12.1694 16.8573C11.5079 17.2836 10.9087 17.4913 10.3719 17.4805C9.78013 17.4685 8.64175 17.1664 7.79548 16.9083C6.75749 16.5916 5.93252 16.4242 6.00436 15.8864C6.04178 15.6063 6.45279 15.3198 7.23741 15.027Z" fill="white"/>
</g>
</svg>
