<svg width="120" height="120" viewBox="0 0 120 120" fill="none" xmlns="http://www.w3.org/2000/svg">
<g id="Frame">
<path id="Vector" d="M97.5 20.625H22.5C21.0082 20.625 19.5774 21.2176 18.5225 22.2725C17.4676 23.3274 16.875 24.7582 16.875 26.25V52.5C16.875 76.4813 28.4672 90.9938 38.1891 98.9531C48.6891 107.541 59.0719 110.438 59.5078 110.559C59.8301 110.647 60.1699 110.647 60.4922 110.559C60.9281 110.438 71.3109 107.541 81.8109 98.9531C91.5328 90.9844 103.125 76.4813 103.125 52.5V26.25C103.125 24.7582 102.532 23.3274 101.477 22.2725C100.423 21.2176 98.9918 20.625 97.5 20.625ZM99.375 52.5C99.375 70.5187 92.7047 85.1391 79.5516 95.9578C73.7434 100.722 67.1189 104.392 60 106.791C52.8802 104.394 46.2553 100.724 40.4484 95.9578C27.2953 85.1391 20.625 70.5187 20.625 52.5V26.25C20.625 25.7527 20.8225 25.2758 21.1742 24.9242C21.5258 24.5725 22.0027 24.375 22.5 24.375H97.5C97.9973 24.375 98.4742 24.5725 98.8258 24.9242C99.1775 25.2758 99.375 25.7527 99.375 26.25V52.5ZM80.0766 47.4234C80.2509 47.5976 80.3892 47.8044 80.4836 48.032C80.5779 48.2596 80.6265 48.5036 80.6265 48.75C80.6265 48.9964 80.5779 49.2404 80.4836 49.468C80.3892 49.6956 80.2509 49.9024 80.0766 50.0766L53.8266 76.3266C53.6524 76.5009 53.4456 76.6392 53.218 76.7336C52.9904 76.8279 52.7464 76.8765 52.5 76.8765C52.2536 76.8765 52.0096 76.8279 51.782 76.7336C51.5544 76.6392 51.3476 76.5009 51.1734 76.3266L39.9234 65.0766C39.5716 64.7247 39.374 64.2476 39.374 63.75C39.374 63.2524 39.5716 62.7753 39.9234 62.4234C40.2753 62.0716 40.7524 61.874 41.25 61.874C41.7476 61.874 42.2247 62.0716 42.5766 62.4234L52.5 72.3469L77.4234 47.4234C77.5976 47.2491 77.8044 47.1108 78.032 47.0164C78.2596 46.9221 78.5036 46.8735 78.75 46.8735C78.9964 46.8735 79.2404 46.9221 79.468 47.0164C79.6956 47.1108 79.9024 47.2491 80.0766 47.4234Z" fill="#FEFEFE"/>
</g>
</svg>
