<svg width="120" height="120" viewBox="0 0 120 120" fill="none" xmlns="http://www.w3.org/2000/svg">
<g id="Frame">
<path id="Vector" d="M108.75 58.125H103.083C102.6 47.3514 98.103 37.1484 90.4773 29.5227C82.8516 21.897 72.6486 17.4003 61.875 16.9172V11.25C61.875 10.7527 61.6775 10.2758 61.3258 9.92418C60.9742 9.57254 60.4973 9.375 60 9.375C59.5027 9.375 59.0258 9.57254 58.6742 9.92418C58.3225 10.2758 58.125 10.7527 58.125 11.25V16.9172C47.3514 17.4003 37.1484 21.897 29.5227 29.5227C21.897 37.1484 17.4003 47.3514 16.9172 58.125H11.25C10.7527 58.125 10.2758 58.3225 9.92418 58.6742C9.57254 59.0258 9.375 59.5027 9.375 60C9.375 60.4973 9.57254 60.9742 9.92418 61.3258C10.2758 61.6775 10.7527 61.875 11.25 61.875H16.9172C17.4003 72.6486 21.897 82.8516 29.5227 90.4773C37.1484 98.103 47.3514 102.6 58.125 103.083V108.75C58.125 109.247 58.3225 109.724 58.6742 110.076C59.0258 110.427 59.5027 110.625 60 110.625C60.4973 110.625 60.9742 110.427 61.3258 110.076C61.6775 109.724 61.875 109.247 61.875 108.75V103.083C72.6486 102.6 82.8516 98.103 90.4773 90.4773C98.103 82.8516 102.6 72.6486 103.083 61.875H108.75C109.247 61.875 109.724 61.6775 110.076 61.3258C110.427 60.9742 110.625 60.4973 110.625 60C110.625 59.5027 110.427 59.0258 110.076 58.6742C109.724 58.3225 109.247 58.125 108.75 58.125ZM61.875 99.3281V93.75C61.875 93.2527 61.6775 92.7758 61.3258 92.4242C60.9742 92.0725 60.4973 91.875 60 91.875C59.5027 91.875 59.0258 92.0725 58.6742 92.4242C58.3225 92.7758 58.125 93.2527 58.125 93.75V99.3281C48.3463 98.8498 39.0954 94.7503 32.1726 87.8274C25.2497 80.9046 21.1502 71.6537 20.6719 61.875H26.25C26.7473 61.875 27.2242 61.6775 27.5758 61.3258C27.9275 60.9742 28.125 60.4973 28.125 60C28.125 59.5027 27.9275 59.0258 27.5758 58.6742C27.2242 58.3225 26.7473 58.125 26.25 58.125H20.6719C21.1502 48.3463 25.2497 39.0954 32.1726 32.1726C39.0954 25.2497 48.3463 21.1502 58.125 20.6719V26.25C58.125 26.7473 58.3225 27.2242 58.6742 27.5758C59.0258 27.9275 59.5027 28.125 60 28.125C60.4973 28.125 60.9742 27.9275 61.3258 27.5758C61.6775 27.2242 61.875 26.7473 61.875 26.25V20.6719C71.6537 21.1502 80.9046 25.2497 87.8274 32.1726C94.7503 39.0954 98.8498 48.3463 99.3281 58.125H93.75C93.2527 58.125 92.7758 58.3225 92.4242 58.6742C92.0725 59.0258 91.875 59.5027 91.875 60C91.875 60.4973 92.0725 60.9742 92.4242 61.3258C92.7758 61.6775 93.2527 61.875 93.75 61.875H99.3281C98.8498 71.6537 94.7503 80.9046 87.8274 87.8274C80.9046 94.7503 71.6537 98.8498 61.875 99.3281ZM60 43.125C56.6624 43.125 53.3998 44.1147 50.6248 45.9689C47.8497 47.8232 45.6868 50.4587 44.4095 53.5422C43.1323 56.6257 42.7981 60.0187 43.4492 63.2922C44.1004 66.5656 45.7076 69.5724 48.0676 71.9324C50.4276 74.2924 53.4344 75.8996 56.7078 76.5508C59.9813 77.2019 63.3743 76.8677 66.4578 75.5905C69.5413 74.3132 72.1768 72.1503 74.0311 69.3753C75.8853 66.6002 76.875 63.3376 76.875 60C76.875 55.5245 75.0971 51.2323 71.9324 48.0676C68.7677 44.9029 64.4755 43.125 60 43.125ZM60 73.125C57.4041 73.125 54.8665 72.3552 52.7081 70.913C50.5497 69.4708 48.8675 67.421 47.8741 65.0227C46.8807 62.6244 46.6208 59.9854 47.1272 57.4394C47.6336 54.8934 48.8837 52.5548 50.7192 50.7192C52.5548 48.8837 54.8934 47.6336 57.4394 47.1272C59.9854 46.6208 62.6244 46.8807 65.0227 47.8741C67.421 48.8675 69.4708 50.5497 70.913 52.7081C72.3552 54.8665 73.125 57.4041 73.125 60C73.125 63.481 71.7422 66.8194 69.2808 69.2808C66.8194 71.7422 63.481 73.125 60 73.125Z" fill="#FEFEFE"/>
</g>
</svg>
