<svg width="64" height="64" viewBox="0 0 64 64" fill="none" xmlns="http://www.w3.org/2000/svg">
<g id="Frame">
<path id="Vector" d="M32 7C27.0555 7 22.222 8.46622 18.1107 11.2133C13.9995 13.9603 10.7952 17.8648 8.90301 22.4329C7.01082 27.0011 6.51573 32.0277 7.48036 36.8773C8.44499 41.7268 10.826 46.1814 14.3223 49.6777C17.8186 53.174 22.2732 55.555 27.1227 56.5196C31.9723 57.4843 36.9989 56.9892 41.5671 55.097C46.1352 53.2048 50.0397 50.0005 52.7867 45.8893C55.5338 41.778 57 36.9445 57 32C56.9927 25.3718 54.3565 19.0172 49.6696 14.3304C44.9828 9.64354 38.6282 7.00728 32 7ZM32 55C27.451 55 23.0042 53.6511 19.2219 51.1238C15.4395 48.5965 12.4916 45.0044 10.7508 40.8017C9.00995 36.599 8.55447 31.9745 9.44193 27.5129C10.3294 23.0514 12.5199 18.9532 15.7365 15.7365C18.9531 12.5199 23.0514 10.3294 27.5129 9.44194C31.9745 8.55448 36.599 9.00995 40.8017 10.7508C45.0044 12.4916 48.5965 15.4396 51.1238 19.2219C53.6511 23.0042 55 27.451 55 32C54.9934 38.0979 52.568 43.9442 48.2561 48.2561C43.9442 52.568 38.0979 54.9934 32 55ZM47 32C47 32.2652 46.8946 32.5196 46.7071 32.7071C46.5196 32.8946 46.2652 33 46 33H32C31.7348 33 31.4804 32.8946 31.2929 32.7071C31.1054 32.5196 31 32.2652 31 32V18C31 17.7348 31.1054 17.4804 31.2929 17.2929C31.4804 17.1054 31.7348 17 32 17C32.2652 17 32.5196 17.1054 32.7071 17.2929C32.8946 17.4804 33 17.7348 33 18V31H46C46.2652 31 46.5196 31.1054 46.7071 31.2929C46.8946 31.4804 47 31.7348 47 32Z" fill="#005450"/>
</g>
</svg>
