<svg width="64" height="64" viewBox="0 0 64 64" fill="none" xmlns="http://www.w3.org/2000/svg">
<g id="Frame">
<path id="Vector" d="M55 10V19C55 19.2652 54.8946 19.5196 54.7071 19.7071C54.5196 19.8946 54.2652 20 54 20C53.7348 20 53.4804 19.8946 53.2929 19.7071C53.1054 19.5196 53 19.2652 53 19V11H45C44.7348 11 44.4804 10.8946 44.2929 10.7071C44.1054 10.5196 44 10.2652 44 10C44 9.73478 44.1054 9.48043 44.2929 9.29289C44.4804 9.10536 44.7348 9 45 9H54C54.2652 9 54.5196 9.10536 54.7071 9.29289C54.8946 9.48043 55 9.73478 55 10ZM54 44C53.7348 44 53.4804 44.1054 53.2929 44.2929C53.1054 44.4804 53 44.7348 53 45V53H45C44.7348 53 44.4804 53.1054 44.2929 53.2929C44.1054 53.4804 44 53.7348 44 54C44 54.2652 44.1054 54.5196 44.2929 54.7071C44.4804 54.8946 44.7348 55 45 55H54C54.2652 55 54.5196 54.8946 54.7071 54.7071C54.8946 54.5196 55 54.2652 55 54V45C55 44.7348 54.8946 44.4804 54.7071 44.2929C54.5196 44.1054 54.2652 44 54 44ZM19 53H11V45C11 44.7348 10.8946 44.4804 10.7071 44.2929C10.5196 44.1054 10.2652 44 10 44C9.73478 44 9.48043 44.1054 9.29289 44.2929C9.10536 44.4804 9 44.7348 9 45V54C9 54.2652 9.10536 54.5196 9.29289 54.7071C9.48043 54.8946 9.73478 55 10 55H19C19.2652 55 19.5196 54.8946 19.7071 54.7071C19.8946 54.5196 20 54.2652 20 54C20 53.7348 19.8946 53.4804 19.7071 53.2929C19.5196 53.1054 19.2652 53 19 53ZM10 20C10.2652 20 10.5196 19.8946 10.7071 19.7071C10.8946 19.5196 11 19.2652 11 19V11H19C19.2652 11 19.5196 10.8946 19.7071 10.7071C19.8946 10.5196 20 10.2652 20 10C20 9.73478 19.8946 9.48043 19.7071 9.29289C19.5196 9.10536 19.2652 9 19 9H10C9.73478 9 9.48043 9.10536 9.29289 9.29289C9.10536 9.48043 9 9.73478 9 10V19C9 19.2652 9.10536 19.5196 9.29289 19.7071C9.48043 19.8946 9.73478 20 10 20ZM44 43C43.8448 43 43.6916 42.9639 43.5528 42.8944C43.4139 42.825 43.2931 42.7242 43.2 42.6C41.8959 40.8613 40.205 39.45 38.261 38.478C36.317 37.506 34.1734 37 32 37C29.8266 37 27.683 37.506 25.739 38.478C23.795 39.45 22.1041 40.8613 20.8 42.6C20.6409 42.8122 20.404 42.9524 20.1414 42.9899C19.8789 43.0275 19.6122 42.9591 19.4 42.8C19.1878 42.6409 19.0476 42.404 19.01 42.1414C18.9725 41.8789 19.0409 41.6122 19.2 41.4C21.2295 38.6777 24.0765 36.676 27.325 35.6875C25.6469 34.6674 24.3486 33.1265 23.6279 31.2997C22.9072 29.4729 22.8039 27.4605 23.3335 25.5695C23.8632 23.6785 24.9969 22.0126 26.5616 20.8259C28.1263 19.6393 30.0362 18.997 32 18.997C33.9638 18.997 35.8737 19.6393 37.4384 20.8259C39.0031 22.0126 40.1368 23.6785 40.6665 25.5695C41.1961 27.4605 41.0928 29.4729 40.3721 31.2997C39.6514 33.1265 38.3531 34.6674 36.675 35.6875C39.9235 36.676 42.7705 38.6777 44.8 41.4C44.9114 41.5486 44.9793 41.7252 44.996 41.9102C45.0126 42.0952 44.9775 42.2811 44.8944 42.4472C44.8114 42.6133 44.6837 42.753 44.5257 42.8507C44.3678 42.9483 44.1857 43 44 43ZM32 35C33.3845 35 34.7378 34.5895 35.889 33.8203C37.0401 33.0511 37.9373 31.9579 38.4672 30.6788C38.997 29.3997 39.1356 27.9922 38.8655 26.6344C38.5954 25.2765 37.9287 24.0292 36.9497 23.0503C35.9708 22.0713 34.7235 21.4046 33.3656 21.1345C32.0078 20.8644 30.6003 21.003 29.3212 21.5328C28.0421 22.0627 26.9489 22.9599 26.1797 24.111C25.4105 25.2622 25 26.6155 25 28C25 29.8565 25.7375 31.637 27.0503 32.9497C28.363 34.2625 30.1435 35 32 35Z" fill="#005450"/>
</g>
</svg>
