<svg width="64" height="64" viewBox="0 0 64 64" fill="none" xmlns="http://www.w3.org/2000/svg">
<g id="Frame">
<path id="Vector" d="M62.75 27.35L51.3675 14.075C51.0858 13.7382 50.7335 13.4674 50.3357 13.2817C49.9378 13.0959 49.5041 12.9998 49.065 13H8C7.20435 13 6.44129 13.3161 5.87868 13.8787C5.31607 14.4413 5 15.2044 5 16V44C5 44.7956 5.31607 45.5587 5.87868 46.1213C6.44129 46.6839 7.20435 47 8 47H13.0725C13.314 48.665 14.1471 50.1873 15.4193 51.2882C16.6915 52.3892 18.3176 52.9951 20 52.9951C21.6824 52.9951 23.3085 52.3892 24.5807 51.2882C25.8529 50.1873 26.686 48.665 26.9275 47H41.0725C41.314 48.665 42.1471 50.1873 43.4193 51.2882C44.6915 52.3892 46.3176 52.9951 48 52.9951C49.6824 52.9951 51.3085 52.3892 52.5807 51.2882C53.8529 50.1873 54.686 48.665 54.9275 47H60C60.7957 47 61.5587 46.6839 62.1213 46.1213C62.6839 45.5587 63 44.7956 63 44V28C62.9972 27.7604 62.9085 27.5297 62.75 27.35ZM49.84 15.3675L59.825 27H43V15H49.065C49.2133 14.9999 49.3599 15.0329 49.4939 15.0964C49.6279 15.16 49.7462 15.2526 49.84 15.3675ZM25 27V15H41V27H25ZM8 15H23V27H7V16C7 15.7348 7.10536 15.4804 7.29289 15.2929C7.48043 15.1054 7.73478 15 8 15ZM20 51C19.0111 51 18.0444 50.7068 17.2221 50.1573C16.3999 49.6079 15.759 48.827 15.3806 47.9134C15.0022 46.9998 14.9031 45.9945 15.0961 45.0245C15.289 44.0546 15.7652 43.1637 16.4645 42.4645C17.1637 41.7652 18.0546 41.289 19.0245 41.0961C19.9945 40.9031 20.9998 41.0022 21.9134 41.3806C22.827 41.759 23.6079 42.3999 24.1573 43.2221C24.7068 44.0444 25 45.0111 25 46C25 47.3261 24.4732 48.5979 23.5355 49.5355C22.5979 50.4732 21.3261 51 20 51ZM48 51C47.0111 51 46.0444 50.7068 45.2221 50.1573C44.3999 49.6079 43.759 48.827 43.3806 47.9134C43.0022 46.9998 42.9031 45.9945 43.0961 45.0245C43.289 44.0546 43.7652 43.1637 44.4645 42.4645C45.1637 41.7652 46.0546 41.289 47.0245 41.0961C47.9945 40.9031 48.9998 41.0022 49.9134 41.3806C50.827 41.759 51.6079 42.3999 52.1573 43.2221C52.7068 44.0444 53 45.0111 53 46C53 47.3261 52.4732 48.5979 51.5355 49.5355C50.5979 50.4732 49.3261 51 48 51ZM60 45H54.9275C54.686 43.335 53.8529 41.8127 52.5807 40.7118C51.3085 39.6108 49.6824 39.0049 48 39.0049C46.3176 39.0049 44.6915 39.6108 43.4193 40.7118C42.1471 41.8127 41.314 43.335 41.0725 45H26.9275C26.686 43.335 25.8529 41.8127 24.5807 40.7118C23.3085 39.6108 21.6824 39.0049 20 39.0049C18.3176 39.0049 16.6915 39.6108 15.4193 40.7118C14.1471 41.8127 13.314 43.335 13.0725 45H8C7.73478 45 7.48043 44.8946 7.29289 44.7071C7.10536 44.5196 7 44.2652 7 44V29H61V44C61 44.2652 60.8946 44.5196 60.7071 44.7071C60.5196 44.8946 60.2652 45 60 45Z" fill="#005450"/>
</g>
</svg>
