<svg width="64" height="64" viewBox="0 0 64 64" fill="none" xmlns="http://www.w3.org/2000/svg">
<g id="Frame">
<path id="Vector" d="M33.2925 41.7102C36.6813 40.2606 39.4658 37.6854 41.1752 34.4199C42.8847 31.1544 43.4142 27.3988 42.6743 23.7879C41.9345 20.177 39.9706 16.9323 37.1147 14.6022C34.2587 12.2721 30.6859 10.9995 27 10.9995C23.3141 10.9995 19.7412 12.2721 16.8853 14.6022C14.0293 16.9323 12.0655 20.177 11.3256 23.7879C10.5858 27.3988 11.1153 31.1544 12.8247 34.4199C14.5341 37.6854 17.3186 40.2606 20.7075 41.7102C14.7675 43.0752 9.41247 46.3827 5.23497 51.3577C5.14361 51.4572 5.07334 51.5741 5.02841 51.7015C4.98347 51.8288 4.9648 51.964 4.97352 52.0988C4.98224 52.2335 5.01818 52.3651 5.07915 52.4857C5.14013 52.6062 5.22488 52.7131 5.3283 52.7999C5.43172 52.8868 5.55167 52.9518 5.6809 52.991C5.81013 53.0303 5.94597 53.0429 6.08023 53.0282C6.21448 53.0135 6.34437 52.9718 6.46206 52.9056C6.57974 52.8393 6.68279 52.7499 6.76497 52.6427C12 46.4252 19.1775 43.0002 27 43.0002C34.8225 43.0002 42 46.4252 47.235 52.6427C47.4092 52.8324 47.6499 52.9475 47.9069 52.9641C48.1639 52.9808 48.4174 52.8976 48.6146 52.732C48.8118 52.5663 48.9375 52.331 48.9655 52.075C48.9935 51.819 48.9217 51.5621 48.765 51.3577C44.5875 46.3827 39.2325 43.0752 33.2925 41.7102ZM13 27.0002C13 24.2313 13.8211 21.5245 15.3594 19.2222C16.8977 16.9199 19.0842 15.1255 21.6424 14.0659C24.2006 13.0063 27.0155 12.729 29.7312 13.2692C32.447 13.8094 34.9415 15.1428 36.8995 17.1007C38.8574 19.0586 40.1908 21.5532 40.731 24.2689C41.2712 26.9847 40.9939 29.7996 39.9343 32.3578C38.8747 34.9159 37.0802 37.1024 34.778 38.6408C32.4757 40.1791 29.7689 41.0002 27 41.0002C23.2882 40.9962 19.7295 39.52 17.1049 36.8953C14.4802 34.2707 13.0039 30.712 13 27.0002ZM50.92 16.7927C52.2925 20.0208 52.9999 23.4925 52.9999 27.0002C52.9999 30.5079 52.2925 33.9796 50.92 37.2077C50.843 37.388 50.7148 37.5417 50.5513 37.6497C50.3877 37.7577 50.196 37.8152 50 37.8152C49.8652 37.8145 49.7318 37.7873 49.6075 37.7352C49.4866 37.6837 49.3771 37.6089 49.2852 37.515C49.1933 37.4212 49.1208 37.3101 49.0718 37.1882C49.0228 37.0664 48.9983 36.936 48.9997 36.8047C49.0011 36.6733 49.0284 36.5435 49.08 36.4227C50.347 33.4429 51 30.2382 51 27.0002C51 23.7622 50.347 20.5575 49.08 17.5777C48.9759 17.3337 48.973 17.0583 49.0719 16.8122C49.1708 16.5661 49.3635 16.3693 49.6075 16.2652C49.8515 16.1611 50.1268 16.1582 50.373 16.2571C50.6191 16.3561 50.8159 16.5487 50.92 16.7927ZM61 27.0002C61.0055 31.6059 60.0697 36.1642 58.25 40.3952C58.1727 40.575 58.0443 40.7282 57.8807 40.8357C57.7172 40.9433 57.5257 41.0005 57.33 41.0002C57.195 41.0007 57.0614 40.9735 56.9375 40.9202C56.8166 40.8685 56.707 40.7934 56.6152 40.6992C56.5233 40.6051 56.4509 40.4938 56.4022 40.3716C56.3534 40.2495 56.3292 40.1189 56.331 39.9874C56.3327 39.8559 56.3604 39.726 56.4125 39.6052C58.1132 35.6205 58.99 31.3327 58.99 27.0002C58.99 22.6677 58.1132 18.38 56.4125 14.3952C56.3606 14.2746 56.333 14.1449 56.3312 14.0135C56.3295 13.8822 56.3536 13.7518 56.4023 13.6299C56.4509 13.5079 56.5231 13.3966 56.6147 13.3025C56.7063 13.2085 56.8156 13.1333 56.9362 13.0815C57.0569 13.0296 57.1866 13.002 57.3179 13.0002C57.4492 12.9985 57.5796 13.0226 57.7016 13.0712C57.8236 13.1199 57.9348 13.1921 58.0289 13.2837C58.123 13.3753 58.1981 13.4846 58.25 13.6052C60.0697 17.8362 61.0055 22.3945 61 27.0002Z" fill="#005450"/>
</g>
</svg>
