<svg width="64" height="64" viewBox="0 0 64 64" fill="none" xmlns="http://www.w3.org/2000/svg">
<path d="M61 23.17C61.0009 22.7762 60.9239 22.3861 60.7733 22.0222C60.6226 21.6584 60.4015 21.3279 60.1225 21.05L42.95 3.87748C42.6713 3.5978 42.3401 3.37589 41.9754 3.22448C41.6108 3.07306 41.2198 2.99512 40.825 2.99512C40.4301 2.99512 40.0392 3.07306 39.6745 3.22448C39.3099 3.37589 38.9787 3.5978 38.7 3.87748L31.445 11.14L16.73 16.6575C16.2377 16.8433 15.8025 17.1548 15.4679 17.5609C15.1333 17.9671 14.9108 18.4537 14.8225 18.9725L9.01249 53.835C8.9885 53.9784 8.99606 54.1253 9.03466 54.2654C9.07325 54.4056 9.14195 54.5357 9.23595 54.6466C9.32996 54.7575 9.44702 54.8466 9.57897 54.9076C9.71093 54.9686 9.8546 55.0002 9.99999 55C10.0552 54.9995 10.1103 54.9954 10.165 54.9875L45.025 49.175C45.5445 49.0888 46.0321 48.8674 46.439 48.533C46.8458 48.1986 47.1574 47.763 47.3425 47.27L52.86 32.555L60.11 25.305C60.3931 25.0264 60.6177 24.694 60.7706 24.3274C60.9234 23.9607 61.0014 23.5672 61 23.17ZM45.47 46.5675C45.4083 46.7318 45.3044 46.877 45.1688 46.9885C45.0332 47.0999 44.8707 47.1738 44.6975 47.2025L12.915 52.5L27.5275 37.8875C28.7537 38.759 30.2626 39.138 31.7552 38.9494C33.2477 38.7609 34.615 38.0186 35.586 36.8695C36.557 35.7205 37.061 34.2486 36.998 32.7455C36.935 31.2424 36.3096 29.8179 35.2459 28.7541C34.1821 27.6903 32.7575 27.065 31.2545 27.002C29.7514 26.939 28.2795 27.443 27.1305 28.414C25.9814 29.385 25.2391 30.7523 25.0505 32.2448C24.862 33.7373 25.241 35.2462 26.1125 36.4725L11.5 51.0875L16.7975 19.3025C16.8262 19.1293 16.9 18.9668 17.0115 18.8312C17.123 18.6956 17.2682 18.5917 17.4325 18.53L31.75 13.16L50.8375 32.25L45.47 46.5675ZM27 33C27 32.2089 27.2346 31.4355 27.6741 30.7777C28.1136 30.1199 28.7383 29.6072 29.4693 29.3045C30.2002 29.0017 31.0044 28.9225 31.7803 29.0768C32.5563 29.2312 33.269 29.6121 33.8284 30.1716C34.3878 30.731 34.7688 31.4437 34.9231 32.2196C35.0775 32.9955 34.9983 33.7998 34.6955 34.5307C34.3928 35.2616 33.8801 35.8863 33.2223 36.3259C32.5645 36.7654 31.7911 37 31 37C29.9391 37 28.9217 36.5786 28.1716 35.8284C27.4214 35.0783 27 34.0608 27 33ZM58.7075 23.8775L52 30.585L33.415 12L40.12 5.29498C40.2129 5.20201 40.3231 5.12825 40.4445 5.07792C40.5659 5.0276 40.6961 5.0017 40.8275 5.0017C40.9589 5.0017 41.089 5.0276 41.2104 5.07792C41.3318 5.12825 41.4421 5.20201 41.535 5.29498L58.7075 22.4675C58.8945 22.6549 58.9995 22.9089 58.9995 23.1737C58.9995 23.4385 58.8945 23.6925 58.7075 23.88V23.8775Z" fill="#005450"/>
</svg>
