<svg width="64" height="64" viewBox="0 0 64 64" fill="none" xmlns="http://www.w3.org/2000/svg">
<g id="Frame">
<path id="Vector" d="M40.555 31.1676L28.555 23.1676C28.4044 23.067 28.2293 23.0093 28.0484 23.0006C27.8675 22.9918 27.6877 23.0323 27.528 23.1178C27.3684 23.2033 27.2349 23.3305 27.1419 23.4859C27.0489 23.6412 26.9999 23.819 27 24.0001V40.0001C26.9998 40.1811 27.0487 40.3589 27.1416 40.5143C27.2346 40.6697 27.3679 40.797 27.5275 40.8826C27.6872 40.9681 27.8672 41.0086 28.0482 40.9998C28.2291 40.991 28.4043 40.9332 28.555 40.8326L40.555 32.8326C40.6922 32.7413 40.8047 32.6175 40.8825 32.4723C40.9603 32.327 41.001 32.1648 41.001 32.0001C41.001 31.8353 40.9603 31.6731 40.8825 31.5278C40.8047 31.3826 40.6922 31.2588 40.555 31.1676ZM29 38.1326V25.8676L38.1975 32.0001L29 38.1326ZM57.615 17.6326C57.4195 16.8643 57.0442 16.1535 56.52 15.5589C55.9958 14.9643 55.3377 14.5028 54.6 14.2126C46.15 10.9476 32.5675 11.0001 32 11.0001C31.4325 11.0001 17.85 10.9476 9.4 14.2126C8.66261 14.5025 8.0047 14.9636 7.48049 15.5578C6.95629 16.152 6.58081 16.8623 6.385 17.6301C5.75 20.0676 5 24.5401 5 32.0001C5 39.4601 5.75 43.9325 6.385 46.37C6.58081 47.1378 6.95629 47.8481 7.48049 48.4423C8.0047 49.0365 8.66261 49.4976 9.4 49.7875C17.85 53.0525 31.4325 53 32 53H32.1775C33.9 53 46.5725 52.8925 54.6075 49.7875C55.3449 49.4976 56.0028 49.0365 56.527 48.4423C57.0512 47.8481 57.4267 47.1378 57.6225 46.37C58.25 43.93 59 39.4601 59 32.0001C59 24.5401 58.25 20.0676 57.615 17.6301V17.6326ZM55.68 45.8825C55.5638 46.3434 55.3398 46.77 55.0264 47.1273C54.713 47.4846 54.3192 47.7623 53.8775 47.9375C45.785 51.0476 32.1425 51 32 51C31.8575 51 18.2225 51.0476 10.13 47.9226C9.68826 47.7473 9.29448 47.4696 8.9811 47.1123C8.66772 46.755 8.4437 46.3284 8.3275 45.8675C7.7175 43.5425 7 39.2501 7 32.0001C7 24.7501 7.7175 20.4576 8.32 18.1326C8.4362 17.6717 8.66021 17.2451 8.9736 16.8878C9.28698 16.5305 9.68076 16.2528 10.1225 16.0776C18.215 12.9526 31.8575 13.0001 32 13.0001C32.1425 13.0001 45.7775 12.9501 53.87 16.0776C54.3117 16.2528 54.7055 16.5305 55.0189 16.8878C55.3323 17.2451 55.5563 17.6717 55.6725 18.1326C56.2825 20.4576 57 24.7501 57 32.0001C57 39.2501 56.2825 43.5425 55.68 45.8675V45.8825Z" fill="#005450"/>
</g>
</svg>
